<?xml version="1.0" encoding="UTF-8"?>
<!DOCTYPE svg PUBLIC "-//W3C//DTD SVG 1.1//EN"
    "http://www.w3.org/Graphics/SVG/1.1/DTD/svg11.dtd"><svg xmlns="http://www.w3.org/2000/svg" height="300.0000" stroke-opacity="1" viewBox="0.0 0.0 200.0 300.0" font-size="1" width="200.0000" xmlns:xlink="http://www.w3.org/1999/xlink" stroke="rgb(0,0,0)" version="1.1"><defs></defs><g stroke-linejoin="miter" stroke-opacity="1.0" fill-opacity="1.0" font-size="17.24137931034483px" stroke="rgb(0,0,0)" stroke-width="0.9541199230632421" fill="rgb(128,0,128)" stroke-linecap="butt" stroke-miterlimit="10.0"><text dominant-baseline="middle" transform="matrix(1.0000,0.0000,0.0000,1.0000,100.0000,300.0000)" stroke="none" text-anchor="middle">value : 17</text></g><g stroke-linejoin="miter" stroke-opacity="1.0" fill-opacity="0.0" stroke="rgb(0,0,0)" stroke-width="0.9541199230632421" fill="rgb(0,0,0)" stroke-linecap="butt" stroke-miterlimit="10.0"><path d="M 134.4828,46.5517 l 34.4828,68.9655 "/></g><g stroke-linejoin="miter" stroke-opacity="1.0" fill-opacity="0.0" stroke="rgb(0,0,0)" stroke-width="0.9541199230632421" fill="rgb(0,0,0)" stroke-linecap="butt" stroke-miterlimit="10.0"><path d="M 134.4828,46.5517 l -34.4828,68.9655 "/></g><g stroke-linejoin="miter" stroke-opacity="1.0" fill-opacity="1.0" stroke="rgb(0,0,0)" stroke-width="0.0" fill="rgb(255,165,0)" stroke-linecap="butt" stroke-miterlimit="10.0"><path d="M 186.2069,115.5172 c 0.0000,-9.5222 -7.7192,-17.2414 -17.2414 -17.2414c -9.5222,-0.0000 -17.2414,7.7192 -17.2414 17.2414c -0.0000,9.5222 7.7192,17.2414 17.2414 17.2414c 9.5222,0.0000 17.2414,-7.7192 17.2414 -17.2414Z"/></g><g stroke-linejoin="miter" stroke-opacity="1.0" fill-opacity="1.0" font-size="17.24137931034483px" stroke="rgb(0,0,0)" stroke-width="0.9541199230632421" fill="rgb(128,0,128)" stroke-linecap="butt" stroke-miterlimit="10.0"><text dominant-baseline="middle" transform="matrix(1.0000,0.0000,0.0000,1.0000,168.9655,115.5172)" stroke="none" text-anchor="middle">2</text></g><g stroke-linejoin="miter" stroke-opacity="1.0" fill-opacity="0.0" stroke="rgb(0,0,0)" stroke-width="0.9541199230632421" fill="rgb(0,0,0)" stroke-linecap="butt" stroke-miterlimit="10.0"><path d="M 100.0000,115.5172 l 34.4828,68.9655 "/></g><g stroke-linejoin="miter" stroke-opacity="1.0" fill-opacity="0.0" stroke="rgb(0,0,0)" stroke-width="0.9541199230632421" fill="rgb(0,0,0)" stroke-linecap="butt" stroke-miterlimit="10.0"><path d="M 100.0000,115.5172 l -34.4828,68.9655 "/></g><g stroke-linejoin="miter" stroke-opacity="1.0" fill-opacity="1.0" stroke="rgb(0,0,0)" stroke-width="0.0" fill="rgb(255,165,0)" stroke-linecap="butt" stroke-miterlimit="10.0"><path d="M 151.7241,184.4828 c 0.0000,-9.5222 -7.7192,-17.2414 -17.2414 -17.2414c -9.5222,-0.0000 -17.2414,7.7192 -17.2414 17.2414c -0.0000,9.5222 7.7192,17.2414 17.2414 17.2414c 9.5222,0.0000 17.2414,-7.7192 17.2414 -17.2414Z"/></g><g stroke-linejoin="miter" stroke-opacity="1.0" fill-opacity="1.0" font-size="17.24137931034483px" stroke="rgb(0,0,0)" stroke-width="0.9541199230632421" fill="rgb(128,0,128)" stroke-linecap="butt" stroke-miterlimit="10.0"><text dominant-baseline="middle" transform="matrix(1.0000,0.0000,0.0000,1.0000,134.4828,184.4828)" stroke="none" text-anchor="middle">6</text></g><g stroke-linejoin="miter" stroke-opacity="1.0" fill-opacity="0.0" stroke="rgb(0,0,0)" stroke-width="0.9541199230632421" fill="rgb(0,0,0)" stroke-linecap="butt" stroke-miterlimit="10.0"><path d="M 65.5172,184.4828 l 34.4828,68.9655 "/></g><g stroke-linejoin="miter" stroke-opacity="1.0" fill-opacity="0.0" stroke="rgb(0,0,0)" stroke-width="0.9541199230632421" fill="rgb(0,0,0)" stroke-linecap="butt" stroke-miterlimit="10.0"><path d="M 65.5172,184.4828 l -34.4828,68.9655 "/></g><g stroke-linejoin="miter" stroke-opacity="1.0" fill-opacity="1.0" stroke="rgb(0,0,0)" stroke-width="0.0" fill="rgb(255,165,0)" stroke-linecap="butt" stroke-miterlimit="10.0"><path d="M 117.2414,253.4483 c 0.0000,-9.5222 -7.7192,-17.2414 -17.2414 -17.2414c -9.5222,-0.0000 -17.2414,7.7192 -17.2414 17.2414c -0.0000,9.5222 7.7192,17.2414 17.2414 17.2414c 9.5222,0.0000 17.2414,-7.7192 17.2414 -17.2414Z"/></g><g stroke-linejoin="miter" stroke-opacity="1.0" fill-opacity="1.0" font-size="17.24137931034483px" stroke="rgb(0,0,0)" stroke-width="0.9541199230632421" fill="rgb(128,0,128)" stroke-linecap="butt" stroke-miterlimit="10.0"><text dominant-baseline="middle" transform="matrix(1.0000,0.0000,0.0000,1.0000,100.0000,253.4483)" stroke="none" text-anchor="middle">8</text></g><g stroke-linejoin="miter" stroke-opacity="1.0" fill-opacity="1.0" stroke="rgb(0,0,0)" stroke-width="0.0" fill="rgb(255,165,0)" stroke-linecap="butt" stroke-miterlimit="10.0"><path d="M 48.2759,253.4483 c 0.0000,-9.5222 -7.7192,-17.2414 -17.2414 -17.2414c -9.5222,-0.0000 -17.2414,7.7192 -17.2414 17.2414c -0.0000,9.5222 7.7192,17.2414 17.2414 17.2414c 9.5222,0.0000 17.2414,-7.7192 17.2414 -17.2414Z"/></g><g stroke-linejoin="miter" stroke-opacity="1.0" fill-opacity="1.0" font-size="17.24137931034483px" stroke="rgb(0,0,0)" stroke-width="0.9541199230632421" fill="rgb(128,0,128)" stroke-linecap="butt" stroke-miterlimit="10.0"><text dominant-baseline="middle" transform="matrix(1.0000,0.0000,0.0000,1.0000,31.0345,253.4483)" stroke="none" text-anchor="middle">5</text></g><g stroke-linejoin="miter" stroke-opacity="1.0" fill-opacity="1.0" stroke="rgb(0,0,0)" stroke-width="0.0" fill="rgb(255,165,0)" stroke-linecap="butt" stroke-miterlimit="10.0"><path d="M 82.7586,184.4828 c 0.0000,-9.5222 -7.7192,-17.2414 -17.2414 -17.2414c -9.5222,-0.0000 -17.2414,7.7192 -17.2414 17.2414c -0.0000,9.5222 7.7192,17.2414 17.2414 17.2414c 9.5222,0.0000 17.2414,-7.7192 17.2414 -17.2414Z"/></g><g stroke-linejoin="miter" stroke-opacity="1.0" fill-opacity="1.0" font-size="17.24137931034483px" stroke="rgb(0,0,0)" stroke-width="0.9541199230632421" fill="rgb(128,0,128)" stroke-linecap="butt" stroke-miterlimit="10.0"><text dominant-baseline="middle" transform="matrix(1.0000,0.0000,0.0000,1.0000,65.5172,184.4828)" stroke="none" text-anchor="middle">*</text></g><g stroke-linejoin="miter" stroke-opacity="1.0" fill-opacity="1.0" stroke="rgb(0,0,0)" stroke-width="0.0" fill="rgb(255,165,0)" stroke-linecap="butt" stroke-miterlimit="10.0"><path d="M 117.2414,115.5172 c 0.0000,-9.5222 -7.7192,-17.2414 -17.2414 -17.2414c -9.5222,-0.0000 -17.2414,7.7192 -17.2414 17.2414c -0.0000,9.5222 7.7192,17.2414 17.2414 17.2414c 9.5222,0.0000 17.2414,-7.7192 17.2414 -17.2414Z"/></g><g stroke-linejoin="miter" stroke-opacity="1.0" fill-opacity="1.0" font-size="17.24137931034483px" stroke="rgb(0,0,0)" stroke-width="0.9541199230632421" fill="rgb(128,0,128)" stroke-linecap="butt" stroke-miterlimit="10.0"><text dominant-baseline="middle" transform="matrix(1.0000,0.0000,0.0000,1.0000,100.0000,115.5172)" stroke="none" text-anchor="middle">-</text></g><g stroke-linejoin="miter" stroke-opacity="1.0" fill-opacity="1.0" stroke="rgb(0,0,0)" stroke-width="0.0" fill="rgb(255,165,0)" stroke-linecap="butt" stroke-miterlimit="10.0"><path d="M 151.7241,46.5517 c 0.0000,-9.5222 -7.7192,-17.2414 -17.2414 -17.2414c -9.5222,-0.0000 -17.2414,7.7192 -17.2414 17.2414c -0.0000,9.5222 7.7192,17.2414 17.2414 17.2414c 9.5222,0.0000 17.2414,-7.7192 17.2414 -17.2414Z"/></g><g stroke-linejoin="miter" stroke-opacity="1.0" fill-opacity="1.0" font-size="17.24137931034483px" stroke="rgb(0,0,0)" stroke-width="0.9541199230632421" fill="rgb(128,0,128)" stroke-linecap="butt" stroke-miterlimit="10.0"><text dominant-baseline="middle" transform="matrix(1.0000,0.0000,0.0000,1.0000,134.4828,46.5517)" stroke="none" text-anchor="middle">รท</text></g></svg>