<?xml version="1.0" encoding="UTF-8"?>
<!DOCTYPE svg PUBLIC "-//W3C//DTD SVG 1.1//EN"
    "http://www.w3.org/Graphics/SVG/1.1/DTD/svg11.dtd"><svg xmlns="http://www.w3.org/2000/svg" height="300.0000" stroke-opacity="1" viewBox="0.0 0.0 200.0 300.0" font-size="1" width="200.0000" xmlns:xlink="http://www.w3.org/1999/xlink" stroke="rgb(0,0,0)" version="1.1"><defs></defs><g stroke-linejoin="miter" stroke-opacity="1.0" fill-opacity="1.0" font-size="12.987012987012987px" stroke="rgb(0,0,0)" stroke-width="0.7350236324498283" fill="rgb(128,0,128)" stroke-linecap="butt" stroke-miterlimit="10.0"><text dominant-baseline="middle" transform="matrix(1.0000,0.0000,0.0000,1.0000,100.0000,234.4156)" stroke="none" text-anchor="middle">value : 37</text></g><g stroke-linejoin="miter" stroke-opacity="1.0" fill-opacity="0.0" stroke="rgb(0,0,0)" stroke-width="0.7350236324498283" fill="rgb(0,0,0)" stroke-linecap="butt" stroke-miterlimit="10.0"><path d="M 100.0000,98.0519 l 51.9481,51.9481 "/></g><g stroke-linejoin="miter" stroke-opacity="1.0" fill-opacity="0.0" stroke="rgb(0,0,0)" stroke-width="0.7350236324498283" fill="rgb(0,0,0)" stroke-linecap="butt" stroke-miterlimit="10.0"><path d="M 100.0000,98.0519 l -51.9481,51.9481 "/></g><g stroke-linejoin="miter" stroke-opacity="1.0" fill-opacity="0.0" stroke="rgb(0,0,0)" stroke-width="0.7350236324498283" fill="rgb(0,0,0)" stroke-linecap="butt" stroke-miterlimit="10.0"><path d="M 151.9481,150.0000 l 25.9740,51.9481 "/></g><g stroke-linejoin="miter" stroke-opacity="1.0" fill-opacity="0.0" stroke="rgb(0,0,0)" stroke-width="0.7350236324498283" fill="rgb(0,0,0)" stroke-linecap="butt" stroke-miterlimit="10.0"><path d="M 151.9481,150.0000 l -25.9740,51.9481 "/></g><g stroke-linejoin="miter" stroke-opacity="1.0" fill-opacity="1.0" stroke="rgb(0,0,0)" stroke-width="0.0" fill="rgb(255,165,0)" stroke-linecap="butt" stroke-miterlimit="10.0"><path d="M 190.9091,201.9481 c 0.0000,-7.1725 -5.8145,-12.9870 -12.9870 -12.9870c -7.1725,-0.0000 -12.9870,5.8145 -12.9870 12.9870c -0.0000,7.1725 5.8145,12.9870 12.9870 12.9870c 7.1725,0.0000 12.9870,-5.8145 12.9870 -12.9870Z"/></g><g stroke-linejoin="miter" stroke-opacity="1.0" fill-opacity="1.0" font-size="12.987012987012987px" stroke="rgb(0,0,0)" stroke-width="0.7350236324498283" fill="rgb(128,0,128)" stroke-linecap="butt" stroke-miterlimit="10.0"><text dominant-baseline="middle" transform="matrix(1.0000,0.0000,0.0000,1.0000,177.9221,201.9481)" stroke="none" text-anchor="middle">2</text></g><g stroke-linejoin="miter" stroke-opacity="1.0" fill-opacity="1.0" stroke="rgb(0,0,0)" stroke-width="0.0" fill="rgb(255,165,0)" stroke-linecap="butt" stroke-miterlimit="10.0"><path d="M 138.9610,201.9481 c 0.0000,-7.1725 -5.8145,-12.9870 -12.9870 -12.9870c -7.1725,-0.0000 -12.9870,5.8145 -12.9870 12.9870c -0.0000,7.1725 5.8145,12.9870 12.9870 12.9870c 7.1725,0.0000 12.9870,-5.8145 12.9870 -12.9870Z"/></g><g stroke-linejoin="miter" stroke-opacity="1.0" fill-opacity="1.0" font-size="12.987012987012987px" stroke="rgb(0,0,0)" stroke-width="0.7350236324498283" fill="rgb(128,0,128)" stroke-linecap="butt" stroke-miterlimit="10.0"><text dominant-baseline="middle" transform="matrix(1.0000,0.0000,0.0000,1.0000,125.9740,201.9481)" stroke="none" text-anchor="middle">6</text></g><g stroke-linejoin="miter" stroke-opacity="1.0" fill-opacity="1.0" stroke="rgb(0,0,0)" stroke-width="0.0" fill="rgb(255,165,0)" stroke-linecap="butt" stroke-miterlimit="10.0"><path d="M 164.9351,150.0000 c 0.0000,-7.1725 -5.8145,-12.9870 -12.9870 -12.9870c -7.1725,-0.0000 -12.9870,5.8145 -12.9870 12.9870c -0.0000,7.1725 5.8145,12.9870 12.9870 12.9870c 7.1725,0.0000 12.9870,-5.8145 12.9870 -12.9870Z"/></g><g stroke-linejoin="miter" stroke-opacity="1.0" fill-opacity="1.0" font-size="12.987012987012987px" stroke="rgb(0,0,0)" stroke-width="0.7350236324498283" fill="rgb(128,0,128)" stroke-linecap="butt" stroke-miterlimit="10.0"><text dominant-baseline="middle" transform="matrix(1.0000,0.0000,0.0000,1.0000,151.9481,150.0000)" stroke="none" text-anchor="middle">รท</text></g><g stroke-linejoin="miter" stroke-opacity="1.0" fill-opacity="0.0" stroke="rgb(0,0,0)" stroke-width="0.7350236324498283" fill="rgb(0,0,0)" stroke-linecap="butt" stroke-miterlimit="10.0"><path d="M 48.0519,150.0000 l 25.9740,51.9481 "/></g><g stroke-linejoin="miter" stroke-opacity="1.0" fill-opacity="0.0" stroke="rgb(0,0,0)" stroke-width="0.7350236324498283" fill="rgb(0,0,0)" stroke-linecap="butt" stroke-miterlimit="10.0"><path d="M 48.0519,150.0000 l -25.9740,51.9481 "/></g><g stroke-linejoin="miter" stroke-opacity="1.0" fill-opacity="1.0" stroke="rgb(0,0,0)" stroke-width="0.0" fill="rgb(255,165,0)" stroke-linecap="butt" stroke-miterlimit="10.0"><path d="M 87.0130,201.9481 c 0.0000,-7.1725 -5.8145,-12.9870 -12.9870 -12.9870c -7.1725,-0.0000 -12.9870,5.8145 -12.9870 12.9870c -0.0000,7.1725 5.8145,12.9870 12.9870 12.9870c 7.1725,0.0000 12.9870,-5.8145 12.9870 -12.9870Z"/></g><g stroke-linejoin="miter" stroke-opacity="1.0" fill-opacity="1.0" font-size="12.987012987012987px" stroke="rgb(0,0,0)" stroke-width="0.7350236324498283" fill="rgb(128,0,128)" stroke-linecap="butt" stroke-miterlimit="10.0"><text dominant-baseline="middle" transform="matrix(1.0000,0.0000,0.0000,1.0000,74.0260,201.9481)" stroke="none" text-anchor="middle">8</text></g><g stroke-linejoin="miter" stroke-opacity="1.0" fill-opacity="1.0" stroke="rgb(0,0,0)" stroke-width="0.0" fill="rgb(255,165,0)" stroke-linecap="butt" stroke-miterlimit="10.0"><path d="M 35.0649,201.9481 c 0.0000,-7.1725 -5.8145,-12.9870 -12.9870 -12.9870c -7.1725,-0.0000 -12.9870,5.8145 -12.9870 12.9870c -0.0000,7.1725 5.8145,12.9870 12.9870 12.9870c 7.1725,0.0000 12.9870,-5.8145 12.9870 -12.9870Z"/></g><g stroke-linejoin="miter" stroke-opacity="1.0" fill-opacity="1.0" font-size="12.987012987012987px" stroke="rgb(0,0,0)" stroke-width="0.7350236324498283" fill="rgb(128,0,128)" stroke-linecap="butt" stroke-miterlimit="10.0"><text dominant-baseline="middle" transform="matrix(1.0000,0.0000,0.0000,1.0000,22.0779,201.9481)" stroke="none" text-anchor="middle">5</text></g><g stroke-linejoin="miter" stroke-opacity="1.0" fill-opacity="1.0" stroke="rgb(0,0,0)" stroke-width="0.0" fill="rgb(255,165,0)" stroke-linecap="butt" stroke-miterlimit="10.0"><path d="M 61.0390,150.0000 c 0.0000,-7.1725 -5.8145,-12.9870 -12.9870 -12.9870c -7.1725,-0.0000 -12.9870,5.8145 -12.9870 12.9870c -0.0000,7.1725 5.8145,12.9870 12.9870 12.9870c 7.1725,0.0000 12.9870,-5.8145 12.9870 -12.9870Z"/></g><g stroke-linejoin="miter" stroke-opacity="1.0" fill-opacity="1.0" font-size="12.987012987012987px" stroke="rgb(0,0,0)" stroke-width="0.7350236324498283" fill="rgb(128,0,128)" stroke-linecap="butt" stroke-miterlimit="10.0"><text dominant-baseline="middle" transform="matrix(1.0000,0.0000,0.0000,1.0000,48.0519,150.0000)" stroke="none" text-anchor="middle">*</text></g><g stroke-linejoin="miter" stroke-opacity="1.0" fill-opacity="1.0" stroke="rgb(0,0,0)" stroke-width="0.0" fill="rgb(255,165,0)" stroke-linecap="butt" stroke-miterlimit="10.0"><path d="M 112.9870,98.0519 c 0.0000,-7.1725 -5.8145,-12.9870 -12.9870 -12.9870c -7.1725,-0.0000 -12.9870,5.8145 -12.9870 12.9870c -0.0000,7.1725 5.8145,12.9870 12.9870 12.9870c 7.1725,0.0000 12.9870,-5.8145 12.9870 -12.9870Z"/></g><g stroke-linejoin="miter" stroke-opacity="1.0" fill-opacity="1.0" font-size="12.987012987012987px" stroke="rgb(0,0,0)" stroke-width="0.7350236324498283" fill="rgb(128,0,128)" stroke-linecap="butt" stroke-miterlimit="10.0"><text dominant-baseline="middle" transform="matrix(1.0000,0.0000,0.0000,1.0000,100.0000,98.0519)" stroke="none" text-anchor="middle">-</text></g></svg>