<?xml version="1.0" encoding="UTF-8"?>
<!DOCTYPE svg PUBLIC "-//W3C//DTD SVG 1.1//EN"
    "http://www.w3.org/Graphics/SVG/1.1/DTD/svg11.dtd"><svg xmlns="http://www.w3.org/2000/svg" height="350.0000" stroke-opacity="1" viewBox="0.0 0.0 150.0 350.0" font-size="1" width="150.0000" xmlns:xlink="http://www.w3.org/1999/xlink" stroke="rgb(0,0,0)" version="1.1"><defs></defs><g stroke-linejoin="miter" stroke-opacity="1.0" fill-opacity="1.0" font-size="17.045454545454543px" stroke="rgb(0,0,0)" stroke-width="0.8436931799049828" fill="rgb(128,0,128)" stroke-linecap="butt" stroke-miterlimit="10.0"><text dominant-baseline="middle" transform="matrix(1.0000,0.0000,0.0000,1.0000,75.0000,323.2955)" stroke="none" text-anchor="middle">value : 5</text></g><g stroke-linejoin="miter" stroke-opacity="1.0" fill-opacity="0.0" stroke="rgb(0,0,0)" stroke-width="0.8436931799049828" fill="rgb(0,0,0)" stroke-linecap="butt" stroke-miterlimit="10.0"><path d="M 57.9545,72.7273 l 34.0909,68.1818 "/></g><g stroke-linejoin="miter" stroke-opacity="1.0" fill-opacity="0.0" stroke="rgb(0,0,0)" stroke-width="0.8436931799049828" fill="rgb(0,0,0)" stroke-linecap="butt" stroke-miterlimit="10.0"><path d="M 57.9545,72.7273 l -34.0909,68.1818 "/></g><g stroke-linejoin="miter" stroke-opacity="1.0" fill-opacity="0.0" stroke="rgb(0,0,0)" stroke-width="0.8436931799049828" fill="rgb(0,0,0)" stroke-linecap="butt" stroke-miterlimit="10.0"><path d="M 92.0455,140.9091 l 34.0909,68.1818 "/></g><g stroke-linejoin="miter" stroke-opacity="1.0" fill-opacity="0.0" stroke="rgb(0,0,0)" stroke-width="0.8436931799049828" fill="rgb(0,0,0)" stroke-linecap="butt" stroke-miterlimit="10.0"><path d="M 92.0455,140.9091 l -34.0909,68.1818 "/></g><g stroke-linejoin="miter" stroke-opacity="1.0" fill-opacity="1.0" stroke="rgb(0,0,0)" stroke-width="0.0" fill="rgb(255,165,0)" stroke-linecap="butt" stroke-miterlimit="10.0"><path d="M 143.1818,209.0909 c 0.0000,-9.4139 -7.6315,-17.0455 -17.0455 -17.0455c -9.4139,-0.0000 -17.0455,7.6315 -17.0455 17.0455c -0.0000,9.4139 7.6315,17.0455 17.0455 17.0455c 9.4139,0.0000 17.0455,-7.6315 17.0455 -17.0455Z"/></g><g stroke-linejoin="miter" stroke-opacity="1.0" fill-opacity="1.0" font-size="17.045454545454543px" stroke="rgb(0,0,0)" stroke-width="0.8436931799049828" fill="rgb(128,0,128)" stroke-linecap="butt" stroke-miterlimit="10.0"><text dominant-baseline="middle" transform="matrix(1.0000,0.0000,0.0000,1.0000,126.1364,209.0909)" stroke="none" text-anchor="middle">2</text></g><g stroke-linejoin="miter" stroke-opacity="1.0" fill-opacity="0.0" stroke="rgb(0,0,0)" stroke-width="0.8436931799049828" fill="rgb(0,0,0)" stroke-linecap="butt" stroke-miterlimit="10.0"><path d="M 57.9545,209.0909 l 34.0909,68.1818 "/></g><g stroke-linejoin="miter" stroke-opacity="1.0" fill-opacity="0.0" stroke="rgb(0,0,0)" stroke-width="0.8436931799049828" fill="rgb(0,0,0)" stroke-linecap="butt" stroke-miterlimit="10.0"><path d="M 57.9545,209.0909 l -34.0909,68.1818 "/></g><g stroke-linejoin="miter" stroke-opacity="1.0" fill-opacity="1.0" stroke="rgb(0,0,0)" stroke-width="0.0" fill="rgb(255,165,0)" stroke-linecap="butt" stroke-miterlimit="10.0"><path d="M 109.0909,277.2727 c 0.0000,-9.4139 -7.6315,-17.0455 -17.0455 -17.0455c -9.4139,-0.0000 -17.0455,7.6315 -17.0455 17.0455c -0.0000,9.4139 7.6315,17.0455 17.0455 17.0455c 9.4139,0.0000 17.0455,-7.6315 17.0455 -17.0455Z"/></g><g stroke-linejoin="miter" stroke-opacity="1.0" fill-opacity="1.0" font-size="17.045454545454543px" stroke="rgb(0,0,0)" stroke-width="0.8436931799049828" fill="rgb(128,0,128)" stroke-linecap="butt" stroke-miterlimit="10.0"><text dominant-baseline="middle" transform="matrix(1.0000,0.0000,0.0000,1.0000,92.0455,277.2727)" stroke="none" text-anchor="middle">6</text></g><g stroke-linejoin="miter" stroke-opacity="1.0" fill-opacity="1.0" stroke="rgb(0,0,0)" stroke-width="0.0" fill="rgb(255,165,0)" stroke-linecap="butt" stroke-miterlimit="10.0"><path d="M 40.9091,277.2727 c 0.0000,-9.4139 -7.6315,-17.0455 -17.0455 -17.0455c -9.4139,-0.0000 -17.0455,7.6315 -17.0455 17.0455c -0.0000,9.4139 7.6315,17.0455 17.0455 17.0455c 9.4139,0.0000 17.0455,-7.6315 17.0455 -17.0455Z"/></g><g stroke-linejoin="miter" stroke-opacity="1.0" fill-opacity="1.0" font-size="17.045454545454543px" stroke="rgb(0,0,0)" stroke-width="0.8436931799049828" fill="rgb(128,0,128)" stroke-linecap="butt" stroke-miterlimit="10.0"><text dominant-baseline="middle" transform="matrix(1.0000,0.0000,0.0000,1.0000,23.8636,277.2727)" stroke="none" text-anchor="middle">8</text></g><g stroke-linejoin="miter" stroke-opacity="1.0" fill-opacity="1.0" stroke="rgb(0,0,0)" stroke-width="0.0" fill="rgb(255,165,0)" stroke-linecap="butt" stroke-miterlimit="10.0"><path d="M 75.0000,209.0909 c 0.0000,-9.4139 -7.6315,-17.0455 -17.0455 -17.0455c -9.4139,-0.0000 -17.0455,7.6315 -17.0455 17.0455c -0.0000,9.4139 7.6315,17.0455 17.0455 17.0455c 9.4139,0.0000 17.0455,-7.6315 17.0455 -17.0455Z"/></g><g stroke-linejoin="miter" stroke-opacity="1.0" fill-opacity="1.0" font-size="17.045454545454543px" stroke="rgb(0,0,0)" stroke-width="0.8436931799049828" fill="rgb(128,0,128)" stroke-linecap="butt" stroke-miterlimit="10.0"><text dominant-baseline="middle" transform="matrix(1.0000,0.0000,0.0000,1.0000,57.9545,209.0909)" stroke="none" text-anchor="middle">-</text></g><g stroke-linejoin="miter" stroke-opacity="1.0" fill-opacity="1.0" stroke="rgb(0,0,0)" stroke-width="0.0" fill="rgb(255,165,0)" stroke-linecap="butt" stroke-miterlimit="10.0"><path d="M 109.0909,140.9091 c 0.0000,-9.4139 -7.6315,-17.0455 -17.0455 -17.0455c -9.4139,-0.0000 -17.0455,7.6315 -17.0455 17.0455c -0.0000,9.4139 7.6315,17.0455 17.0455 17.0455c 9.4139,0.0000 17.0455,-7.6315 17.0455 -17.0455Z"/></g><g stroke-linejoin="miter" stroke-opacity="1.0" fill-opacity="1.0" font-size="17.045454545454543px" stroke="rgb(0,0,0)" stroke-width="0.8436931799049828" fill="rgb(128,0,128)" stroke-linecap="butt" stroke-miterlimit="10.0"><text dominant-baseline="middle" transform="matrix(1.0000,0.0000,0.0000,1.0000,92.0455,140.9091)" stroke="none" text-anchor="middle">รท</text></g><g stroke-linejoin="miter" stroke-opacity="1.0" fill-opacity="1.0" stroke="rgb(0,0,0)" stroke-width="0.0" fill="rgb(255,165,0)" stroke-linecap="butt" stroke-miterlimit="10.0"><path d="M 40.9091,140.9091 c 0.0000,-9.4139 -7.6315,-17.0455 -17.0455 -17.0455c -9.4139,-0.0000 -17.0455,7.6315 -17.0455 17.0455c -0.0000,9.4139 7.6315,17.0455 17.0455 17.0455c 9.4139,0.0000 17.0455,-7.6315 17.0455 -17.0455Z"/></g><g stroke-linejoin="miter" stroke-opacity="1.0" fill-opacity="1.0" font-size="17.045454545454543px" stroke="rgb(0,0,0)" stroke-width="0.8436931799049828" fill="rgb(128,0,128)" stroke-linecap="butt" stroke-miterlimit="10.0"><text dominant-baseline="middle" transform="matrix(1.0000,0.0000,0.0000,1.0000,23.8636,140.9091)" stroke="none" text-anchor="middle">5</text></g><g stroke-linejoin="miter" stroke-opacity="1.0" fill-opacity="1.0" stroke="rgb(0,0,0)" stroke-width="0.0" fill="rgb(255,165,0)" stroke-linecap="butt" stroke-miterlimit="10.0"><path d="M 75.0000,72.7273 c 0.0000,-9.4139 -7.6315,-17.0455 -17.0455 -17.0455c -9.4139,-0.0000 -17.0455,7.6315 -17.0455 17.0455c -0.0000,9.4139 7.6315,17.0455 17.0455 17.0455c 9.4139,0.0000 17.0455,-7.6315 17.0455 -17.0455Z"/></g><g stroke-linejoin="miter" stroke-opacity="1.0" fill-opacity="1.0" font-size="17.045454545454543px" stroke="rgb(0,0,0)" stroke-width="0.8436931799049828" fill="rgb(128,0,128)" stroke-linecap="butt" stroke-miterlimit="10.0"><text dominant-baseline="middle" transform="matrix(1.0000,0.0000,0.0000,1.0000,57.9545,72.7273)" stroke="none" text-anchor="middle">*</text></g></svg>