<?xml version="1.0" encoding="UTF-8"?>
<!DOCTYPE svg PUBLIC "-//W3C//DTD SVG 1.1//EN"
    "http://www.w3.org/Graphics/SVG/1.1/DTD/svg11.dtd"><svg xmlns="http://www.w3.org/2000/svg" height="350.0000" stroke-opacity="1" viewBox="0.0 0.0 150.0 350.0" font-size="1" width="150.0000" xmlns:xlink="http://www.w3.org/1999/xlink" stroke="rgb(0,0,0)" version="1.1"><defs></defs><g stroke-linejoin="miter" stroke-opacity="1.0" fill-opacity="1.0" font-size="9.74025974025974px" stroke="rgb(0,0,0)" stroke-width="0.5512677243373713" fill="rgb(128,0,128)" stroke-linecap="butt" stroke-miterlimit="10.0"><text dominant-baseline="middle" transform="matrix(1.0000,0.0000,0.0000,1.0000,75.0000,238.3117)" stroke="none" text-anchor="middle">value : 37</text></g><g stroke-linejoin="miter" stroke-opacity="1.0" fill-opacity="0.0" stroke="rgb(0,0,0)" stroke-width="0.5512677243373713" fill="rgb(0,0,0)" stroke-linecap="butt" stroke-miterlimit="10.0"><path d="M 75.0000,136.0390 l 38.9610,38.9610 "/></g><g stroke-linejoin="miter" stroke-opacity="1.0" fill-opacity="0.0" stroke="rgb(0,0,0)" stroke-width="0.5512677243373713" fill="rgb(0,0,0)" stroke-linecap="butt" stroke-miterlimit="10.0"><path d="M 75.0000,136.0390 l -38.9610,38.9610 "/></g><g stroke-linejoin="miter" stroke-opacity="1.0" fill-opacity="0.0" stroke="rgb(0,0,0)" stroke-width="0.5512677243373713" fill="rgb(0,0,0)" stroke-linecap="butt" stroke-miterlimit="10.0"><path d="M 113.9610,175.0000 l 19.4805,38.9610 "/></g><g stroke-linejoin="miter" stroke-opacity="1.0" fill-opacity="0.0" stroke="rgb(0,0,0)" stroke-width="0.5512677243373713" fill="rgb(0,0,0)" stroke-linecap="butt" stroke-miterlimit="10.0"><path d="M 113.9610,175.0000 l -19.4805,38.9610 "/></g><g stroke-linejoin="miter" stroke-opacity="1.0" fill-opacity="1.0" stroke="rgb(0,0,0)" stroke-width="0.0" fill="rgb(255,165,0)" stroke-linecap="butt" stroke-miterlimit="10.0"><path d="M 143.1818,213.9610 c 0.0000,-5.3794 -4.3609,-9.7403 -9.7403 -9.7403c -5.3794,-0.0000 -9.7403,4.3609 -9.7403 9.7403c -0.0000,5.3794 4.3609,9.7403 9.7403 9.7403c 5.3794,0.0000 9.7403,-4.3609 9.7403 -9.7403Z"/></g><g stroke-linejoin="miter" stroke-opacity="1.0" fill-opacity="1.0" font-size="9.74025974025974px" stroke="rgb(0,0,0)" stroke-width="0.5512677243373713" fill="rgb(128,0,128)" stroke-linecap="butt" stroke-miterlimit="10.0"><text dominant-baseline="middle" transform="matrix(1.0000,0.0000,0.0000,1.0000,133.4416,213.9610)" stroke="none" text-anchor="middle">2</text></g><g stroke-linejoin="miter" stroke-opacity="1.0" fill-opacity="1.0" stroke="rgb(0,0,0)" stroke-width="0.0" fill="rgb(255,165,0)" stroke-linecap="butt" stroke-miterlimit="10.0"><path d="M 104.2208,213.9610 c 0.0000,-5.3794 -4.3609,-9.7403 -9.7403 -9.7403c -5.3794,-0.0000 -9.7403,4.3609 -9.7403 9.7403c -0.0000,5.3794 4.3609,9.7403 9.7403 9.7403c 5.3794,0.0000 9.7403,-4.3609 9.7403 -9.7403Z"/></g><g stroke-linejoin="miter" stroke-opacity="1.0" fill-opacity="1.0" font-size="9.74025974025974px" stroke="rgb(0,0,0)" stroke-width="0.5512677243373713" fill="rgb(128,0,128)" stroke-linecap="butt" stroke-miterlimit="10.0"><text dominant-baseline="middle" transform="matrix(1.0000,0.0000,0.0000,1.0000,94.4805,213.9610)" stroke="none" text-anchor="middle">6</text></g><g stroke-linejoin="miter" stroke-opacity="1.0" fill-opacity="1.0" stroke="rgb(0,0,0)" stroke-width="0.0" fill="rgb(255,165,0)" stroke-linecap="butt" stroke-miterlimit="10.0"><path d="M 123.7013,175.0000 c 0.0000,-5.3794 -4.3609,-9.7403 -9.7403 -9.7403c -5.3794,-0.0000 -9.7403,4.3609 -9.7403 9.7403c -0.0000,5.3794 4.3609,9.7403 9.7403 9.7403c 5.3794,0.0000 9.7403,-4.3609 9.7403 -9.7403Z"/></g><g stroke-linejoin="miter" stroke-opacity="1.0" fill-opacity="1.0" font-size="9.74025974025974px" stroke="rgb(0,0,0)" stroke-width="0.5512677243373713" fill="rgb(128,0,128)" stroke-linecap="butt" stroke-miterlimit="10.0"><text dominant-baseline="middle" transform="matrix(1.0000,0.0000,0.0000,1.0000,113.9610,175.0000)" stroke="none" text-anchor="middle">รท</text></g><g stroke-linejoin="miter" stroke-opacity="1.0" fill-opacity="0.0" stroke="rgb(0,0,0)" stroke-width="0.5512677243373713" fill="rgb(0,0,0)" stroke-linecap="butt" stroke-miterlimit="10.0"><path d="M 36.0390,175.0000 l 19.4805,38.9610 "/></g><g stroke-linejoin="miter" stroke-opacity="1.0" fill-opacity="0.0" stroke="rgb(0,0,0)" stroke-width="0.5512677243373713" fill="rgb(0,0,0)" stroke-linecap="butt" stroke-miterlimit="10.0"><path d="M 36.0390,175.0000 l -19.4805,38.9610 "/></g><g stroke-linejoin="miter" stroke-opacity="1.0" fill-opacity="1.0" stroke="rgb(0,0,0)" stroke-width="0.0" fill="rgb(255,165,0)" stroke-linecap="butt" stroke-miterlimit="10.0"><path d="M 65.2597,213.9610 c 0.0000,-5.3794 -4.3609,-9.7403 -9.7403 -9.7403c -5.3794,-0.0000 -9.7403,4.3609 -9.7403 9.7403c -0.0000,5.3794 4.3609,9.7403 9.7403 9.7403c 5.3794,0.0000 9.7403,-4.3609 9.7403 -9.7403Z"/></g><g stroke-linejoin="miter" stroke-opacity="1.0" fill-opacity="1.0" font-size="9.74025974025974px" stroke="rgb(0,0,0)" stroke-width="0.5512677243373713" fill="rgb(128,0,128)" stroke-linecap="butt" stroke-miterlimit="10.0"><text dominant-baseline="middle" transform="matrix(1.0000,0.0000,0.0000,1.0000,55.5195,213.9610)" stroke="none" text-anchor="middle">8</text></g><g stroke-linejoin="miter" stroke-opacity="1.0" fill-opacity="1.0" stroke="rgb(0,0,0)" stroke-width="0.0" fill="rgb(255,165,0)" stroke-linecap="butt" stroke-miterlimit="10.0"><path d="M 26.2987,213.9610 c 0.0000,-5.3794 -4.3609,-9.7403 -9.7403 -9.7403c -5.3794,-0.0000 -9.7403,4.3609 -9.7403 9.7403c -0.0000,5.3794 4.3609,9.7403 9.7403 9.7403c 5.3794,0.0000 9.7403,-4.3609 9.7403 -9.7403Z"/></g><g stroke-linejoin="miter" stroke-opacity="1.0" fill-opacity="1.0" font-size="9.74025974025974px" stroke="rgb(0,0,0)" stroke-width="0.5512677243373713" fill="rgb(128,0,128)" stroke-linecap="butt" stroke-miterlimit="10.0"><text dominant-baseline="middle" transform="matrix(1.0000,0.0000,0.0000,1.0000,16.5584,213.9610)" stroke="none" text-anchor="middle">5</text></g><g stroke-linejoin="miter" stroke-opacity="1.0" fill-opacity="1.0" stroke="rgb(0,0,0)" stroke-width="0.0" fill="rgb(255,165,0)" stroke-linecap="butt" stroke-miterlimit="10.0"><path d="M 45.7792,175.0000 c 0.0000,-5.3794 -4.3609,-9.7403 -9.7403 -9.7403c -5.3794,-0.0000 -9.7403,4.3609 -9.7403 9.7403c -0.0000,5.3794 4.3609,9.7403 9.7403 9.7403c 5.3794,0.0000 9.7403,-4.3609 9.7403 -9.7403Z"/></g><g stroke-linejoin="miter" stroke-opacity="1.0" fill-opacity="1.0" font-size="9.74025974025974px" stroke="rgb(0,0,0)" stroke-width="0.5512677243373713" fill="rgb(128,0,128)" stroke-linecap="butt" stroke-miterlimit="10.0"><text dominant-baseline="middle" transform="matrix(1.0000,0.0000,0.0000,1.0000,36.0390,175.0000)" stroke="none" text-anchor="middle">*</text></g><g stroke-linejoin="miter" stroke-opacity="1.0" fill-opacity="1.0" stroke="rgb(0,0,0)" stroke-width="0.0" fill="rgb(255,165,0)" stroke-linecap="butt" stroke-miterlimit="10.0"><path d="M 84.7403,136.0390 c 0.0000,-5.3794 -4.3609,-9.7403 -9.7403 -9.7403c -5.3794,-0.0000 -9.7403,4.3609 -9.7403 9.7403c -0.0000,5.3794 4.3609,9.7403 9.7403 9.7403c 5.3794,0.0000 9.7403,-4.3609 9.7403 -9.7403Z"/></g><g stroke-linejoin="miter" stroke-opacity="1.0" fill-opacity="1.0" font-size="9.74025974025974px" stroke="rgb(0,0,0)" stroke-width="0.5512677243373713" fill="rgb(128,0,128)" stroke-linecap="butt" stroke-miterlimit="10.0"><text dominant-baseline="middle" transform="matrix(1.0000,0.0000,0.0000,1.0000,75.0000,136.0390)" stroke="none" text-anchor="middle">-</text></g></svg>