<?xml version="1.0" encoding="UTF-8"?>
<!DOCTYPE svg PUBLIC "-//W3C//DTD SVG 1.1//EN"
    "http://www.w3.org/Graphics/SVG/1.1/DTD/svg11.dtd"><svg xmlns="http://www.w3.org/2000/svg" height="400.0000" stroke-opacity="1" viewBox="0.0 0.0 80.0 400.0" font-size="1" width="80.0000" xmlns:xlink="http://www.w3.org/1999/xlink" stroke="rgb(0,0,0)" version="1.1"><defs></defs><g stroke-linejoin="miter" stroke-opacity="1.0" fill-opacity="1.0" font-size="4.842615012106537px" stroke="rgb(0,0,0)" stroke-width="0.6908604313413965" fill="rgb(128,0,128)" stroke-linecap="butt" stroke-miterlimit="10.0"><text dominant-baseline="middle" transform="matrix(1.0000,0.0000,0.0000,1.0000,40.0000,400.0000)" stroke="none" text-anchor="middle">value : 37</text></g><g stroke-linejoin="miter" stroke-opacity="1.0" fill-opacity="0.0" stroke="rgb(0,0,0)" stroke-width="0.6908604313413965" fill="rgb(0,0,0)" stroke-linecap="butt" stroke-miterlimit="10.0"><path d="M 40.0000,349.1525 l 19.3705,19.3705 "/></g><g stroke-linejoin="miter" stroke-opacity="1.0" fill-opacity="0.0" stroke="rgb(0,0,0)" stroke-width="0.6908604313413965" fill="rgb(0,0,0)" stroke-linecap="butt" stroke-miterlimit="10.0"><path d="M 40.0000,349.1525 l -19.3705,19.3705 "/></g><g stroke-linejoin="miter" stroke-opacity="1.0" fill-opacity="0.0" stroke="rgb(0,0,0)" stroke-width="0.6908604313413965" fill="rgb(0,0,0)" stroke-linecap="butt" stroke-miterlimit="10.0"><path d="M 59.3705,368.5230 l 9.6852,19.3705 "/></g><g stroke-linejoin="miter" stroke-opacity="1.0" fill-opacity="0.0" stroke="rgb(0,0,0)" stroke-width="0.6908604313413965" fill="rgb(0,0,0)" stroke-linecap="butt" stroke-miterlimit="10.0"><path d="M 59.3705,368.5230 l -9.6852,19.3705 "/></g><g stroke-linejoin="miter" stroke-opacity="1.0" fill-opacity="1.0" stroke="rgb(0,0,0)" stroke-width="0.0" fill="rgb(255,165,0)" stroke-linecap="butt" stroke-miterlimit="10.0"><path d="M 73.8983,387.8935 c 0.0000,-2.6745 -2.1681,-4.8426 -4.8426 -4.8426c -2.6745,-0.0000 -4.8426,2.1681 -4.8426 4.8426c -0.0000,2.6745 2.1681,4.8426 4.8426 4.8426c 2.6745,0.0000 4.8426,-2.1681 4.8426 -4.8426Z"/></g><g stroke-linejoin="miter" stroke-opacity="1.0" fill-opacity="1.0" font-size="4.842615012106537px" stroke="rgb(0,0,0)" stroke-width="0.6908604313413965" fill="rgb(128,0,128)" stroke-linecap="butt" stroke-miterlimit="10.0"><text dominant-baseline="middle" transform="matrix(1.0000,0.0000,0.0000,1.0000,69.0557,387.8935)" stroke="none" text-anchor="middle">2</text></g><g stroke-linejoin="miter" stroke-opacity="1.0" fill-opacity="1.0" stroke="rgb(0,0,0)" stroke-width="0.0" fill="rgb(255,165,0)" stroke-linecap="butt" stroke-miterlimit="10.0"><path d="M 54.5278,387.8935 c 0.0000,-2.6745 -2.1681,-4.8426 -4.8426 -4.8426c -2.6745,-0.0000 -4.8426,2.1681 -4.8426 4.8426c -0.0000,2.6745 2.1681,4.8426 4.8426 4.8426c 2.6745,0.0000 4.8426,-2.1681 4.8426 -4.8426Z"/></g><g stroke-linejoin="miter" stroke-opacity="1.0" fill-opacity="1.0" font-size="4.842615012106537px" stroke="rgb(0,0,0)" stroke-width="0.6908604313413965" fill="rgb(128,0,128)" stroke-linecap="butt" stroke-miterlimit="10.0"><text dominant-baseline="middle" transform="matrix(1.0000,0.0000,0.0000,1.0000,49.6852,387.8935)" stroke="none" text-anchor="middle">6</text></g><g stroke-linejoin="miter" stroke-opacity="1.0" fill-opacity="1.0" stroke="rgb(0,0,0)" stroke-width="0.0" fill="rgb(255,165,0)" stroke-linecap="butt" stroke-miterlimit="10.0"><path d="M 64.2131,368.5230 c 0.0000,-2.6745 -2.1681,-4.8426 -4.8426 -4.8426c -2.6745,-0.0000 -4.8426,2.1681 -4.8426 4.8426c -0.0000,2.6745 2.1681,4.8426 4.8426 4.8426c 2.6745,0.0000 4.8426,-2.1681 4.8426 -4.8426Z"/></g><g stroke-linejoin="miter" stroke-opacity="1.0" fill-opacity="1.0" font-size="4.842615012106537px" stroke="rgb(0,0,0)" stroke-width="0.6908604313413965" fill="rgb(128,0,128)" stroke-linecap="butt" stroke-miterlimit="10.0"><text dominant-baseline="middle" transform="matrix(1.0000,0.0000,0.0000,1.0000,59.3705,368.5230)" stroke="none" text-anchor="middle">÷</text></g><g stroke-linejoin="miter" stroke-opacity="1.0" fill-opacity="0.0" stroke="rgb(0,0,0)" stroke-width="0.6908604313413965" fill="rgb(0,0,0)" stroke-linecap="butt" stroke-miterlimit="10.0"><path d="M 20.6295,368.5230 l 9.6852,19.3705 "/></g><g stroke-linejoin="miter" stroke-opacity="1.0" fill-opacity="0.0" stroke="rgb(0,0,0)" stroke-width="0.6908604313413965" fill="rgb(0,0,0)" stroke-linecap="butt" stroke-miterlimit="10.0"><path d="M 20.6295,368.5230 l -9.6852,19.3705 "/></g><g stroke-linejoin="miter" stroke-opacity="1.0" fill-opacity="1.0" stroke="rgb(0,0,0)" stroke-width="0.0" fill="rgb(255,165,0)" stroke-linecap="butt" stroke-miterlimit="10.0"><path d="M 35.1574,387.8935 c 0.0000,-2.6745 -2.1681,-4.8426 -4.8426 -4.8426c -2.6745,-0.0000 -4.8426,2.1681 -4.8426 4.8426c -0.0000,2.6745 2.1681,4.8426 4.8426 4.8426c 2.6745,0.0000 4.8426,-2.1681 4.8426 -4.8426Z"/></g><g stroke-linejoin="miter" stroke-opacity="1.0" fill-opacity="1.0" font-size="4.842615012106537px" stroke="rgb(0,0,0)" stroke-width="0.6908604313413965" fill="rgb(128,0,128)" stroke-linecap="butt" stroke-miterlimit="10.0"><text dominant-baseline="middle" transform="matrix(1.0000,0.0000,0.0000,1.0000,30.3148,387.8935)" stroke="none" text-anchor="middle">8</text></g><g stroke-linejoin="miter" stroke-opacity="1.0" fill-opacity="1.0" stroke="rgb(0,0,0)" stroke-width="0.0" fill="rgb(255,165,0)" stroke-linecap="butt" stroke-miterlimit="10.0"><path d="M 15.7869,387.8935 c 0.0000,-2.6745 -2.1681,-4.8426 -4.8426 -4.8426c -2.6745,-0.0000 -4.8426,2.1681 -4.8426 4.8426c -0.0000,2.6745 2.1681,4.8426 4.8426 4.8426c 2.6745,0.0000 4.8426,-2.1681 4.8426 -4.8426Z"/></g><g stroke-linejoin="miter" stroke-opacity="1.0" fill-opacity="1.0" font-size="4.842615012106537px" stroke="rgb(0,0,0)" stroke-width="0.6908604313413965" fill="rgb(128,0,128)" stroke-linecap="butt" stroke-miterlimit="10.0"><text dominant-baseline="middle" transform="matrix(1.0000,0.0000,0.0000,1.0000,10.9443,387.8935)" stroke="none" text-anchor="middle">5</text></g><g stroke-linejoin="miter" stroke-opacity="1.0" fill-opacity="1.0" stroke="rgb(0,0,0)" stroke-width="0.0" fill="rgb(255,165,0)" stroke-linecap="butt" stroke-miterlimit="10.0"><path d="M 25.4722,368.5230 c 0.0000,-2.6745 -2.1681,-4.8426 -4.8426 -4.8426c -2.6745,-0.0000 -4.8426,2.1681 -4.8426 4.8426c -0.0000,2.6745 2.1681,4.8426 4.8426 4.8426c 2.6745,0.0000 4.8426,-2.1681 4.8426 -4.8426Z"/></g><g stroke-linejoin="miter" stroke-opacity="1.0" fill-opacity="1.0" font-size="4.842615012106537px" stroke="rgb(0,0,0)" stroke-width="0.6908604313413965" fill="rgb(128,0,128)" stroke-linecap="butt" stroke-miterlimit="10.0"><text dominant-baseline="middle" transform="matrix(1.0000,0.0000,0.0000,1.0000,20.6295,368.5230)" stroke="none" text-anchor="middle">*</text></g><g stroke-linejoin="miter" stroke-opacity="1.0" fill-opacity="1.0" stroke="rgb(0,0,0)" stroke-width="0.0" fill="rgb(255,165,0)" stroke-linecap="butt" stroke-miterlimit="10.0"><path d="M 44.8426,349.1525 c 0.0000,-2.6745 -2.1681,-4.8426 -4.8426 -4.8426c -2.6745,-0.0000 -4.8426,2.1681 -4.8426 4.8426c -0.0000,2.6745 2.1681,4.8426 4.8426 4.8426c 2.6745,0.0000 4.8426,-2.1681 4.8426 -4.8426Z"/></g><g stroke-linejoin="miter" stroke-opacity="1.0" fill-opacity="1.0" font-size="4.842615012106537px" stroke="rgb(0,0,0)" stroke-width="0.6908604313413965" fill="rgb(128,0,128)" stroke-linecap="butt" stroke-miterlimit="10.0"><text dominant-baseline="middle" transform="matrix(1.0000,0.0000,0.0000,1.0000,40.0000,349.1525)" stroke="none" text-anchor="middle">-</text></g><g stroke-linejoin="miter" stroke-opacity="1.0" fill-opacity="1.0" font-size="4.842615012106537px" stroke="rgb(0,0,0)" stroke-width="0.6908604313413965" fill="rgb(128,0,128)" stroke-linecap="butt" stroke-miterlimit="10.0"><text dominant-baseline="middle" transform="matrix(1.0000,0.0000,0.0000,1.0000,40.0000,337.0460)" stroke="none" text-anchor="middle">value : 17</text></g><g stroke-linejoin="miter" stroke-opacity="1.0" fill-opacity="0.0" stroke="rgb(0,0,0)" stroke-width="0.6908604313413965" fill="rgb(0,0,0)" stroke-linecap="butt" stroke-miterlimit="10.0"><path d="M 49.6852,265.8596 l 9.6852,19.3705 "/></g><g stroke-linejoin="miter" stroke-opacity="1.0" fill-opacity="0.0" stroke="rgb(0,0,0)" stroke-width="0.6908604313413965" fill="rgb(0,0,0)" stroke-linecap="butt" stroke-miterlimit="10.0"><path d="M 49.6852,265.8596 l -9.6852,19.3705 "/></g><g stroke-linejoin="miter" stroke-opacity="1.0" fill-opacity="1.0" stroke="rgb(0,0,0)" stroke-width="0.0" fill="rgb(255,165,0)" stroke-linecap="butt" stroke-miterlimit="10.0"><path d="M 64.2131,285.2300 c 0.0000,-2.6745 -2.1681,-4.8426 -4.8426 -4.8426c -2.6745,-0.0000 -4.8426,2.1681 -4.8426 4.8426c -0.0000,2.6745 2.1681,4.8426 4.8426 4.8426c 2.6745,0.0000 4.8426,-2.1681 4.8426 -4.8426Z"/></g><g stroke-linejoin="miter" stroke-opacity="1.0" fill-opacity="1.0" font-size="4.842615012106537px" stroke="rgb(0,0,0)" stroke-width="0.6908604313413965" fill="rgb(128,0,128)" stroke-linecap="butt" stroke-miterlimit="10.0"><text dominant-baseline="middle" transform="matrix(1.0000,0.0000,0.0000,1.0000,59.3705,285.2300)" stroke="none" text-anchor="middle">2</text></g><g stroke-linejoin="miter" stroke-opacity="1.0" fill-opacity="0.0" stroke="rgb(0,0,0)" stroke-width="0.6908604313413965" fill="rgb(0,0,0)" stroke-linecap="butt" stroke-miterlimit="10.0"><path d="M 40.0000,285.2300 l 9.6852,19.3705 "/></g><g stroke-linejoin="miter" stroke-opacity="1.0" fill-opacity="0.0" stroke="rgb(0,0,0)" stroke-width="0.6908604313413965" fill="rgb(0,0,0)" stroke-linecap="butt" stroke-miterlimit="10.0"><path d="M 40.0000,285.2300 l -9.6852,19.3705 "/></g><g stroke-linejoin="miter" stroke-opacity="1.0" fill-opacity="1.0" stroke="rgb(0,0,0)" stroke-width="0.0" fill="rgb(255,165,0)" stroke-linecap="butt" stroke-miterlimit="10.0"><path d="M 54.5278,304.6005 c 0.0000,-2.6745 -2.1681,-4.8426 -4.8426 -4.8426c -2.6745,-0.0000 -4.8426,2.1681 -4.8426 4.8426c -0.0000,2.6745 2.1681,4.8426 4.8426 4.8426c 2.6745,0.0000 4.8426,-2.1681 4.8426 -4.8426Z"/></g><g stroke-linejoin="miter" stroke-opacity="1.0" fill-opacity="1.0" font-size="4.842615012106537px" stroke="rgb(0,0,0)" stroke-width="0.6908604313413965" fill="rgb(128,0,128)" stroke-linecap="butt" stroke-miterlimit="10.0"><text dominant-baseline="middle" transform="matrix(1.0000,0.0000,0.0000,1.0000,49.6852,304.6005)" stroke="none" text-anchor="middle">6</text></g><g stroke-linejoin="miter" stroke-opacity="1.0" fill-opacity="0.0" stroke="rgb(0,0,0)" stroke-width="0.6908604313413965" fill="rgb(0,0,0)" stroke-linecap="butt" stroke-miterlimit="10.0"><path d="M 30.3148,304.6005 l 9.6852,19.3705 "/></g><g stroke-linejoin="miter" stroke-opacity="1.0" fill-opacity="0.0" stroke="rgb(0,0,0)" stroke-width="0.6908604313413965" fill="rgb(0,0,0)" stroke-linecap="butt" stroke-miterlimit="10.0"><path d="M 30.3148,304.6005 l -9.6852,19.3705 "/></g><g stroke-linejoin="miter" stroke-opacity="1.0" fill-opacity="1.0" stroke="rgb(0,0,0)" stroke-width="0.0" fill="rgb(255,165,0)" stroke-linecap="butt" stroke-miterlimit="10.0"><path d="M 44.8426,323.9709 c 0.0000,-2.6745 -2.1681,-4.8426 -4.8426 -4.8426c -2.6745,-0.0000 -4.8426,2.1681 -4.8426 4.8426c -0.0000,2.6745 2.1681,4.8426 4.8426 4.8426c 2.6745,0.0000 4.8426,-2.1681 4.8426 -4.8426Z"/></g><g stroke-linejoin="miter" stroke-opacity="1.0" fill-opacity="1.0" font-size="4.842615012106537px" stroke="rgb(0,0,0)" stroke-width="0.6908604313413965" fill="rgb(128,0,128)" stroke-linecap="butt" stroke-miterlimit="10.0"><text dominant-baseline="middle" transform="matrix(1.0000,0.0000,0.0000,1.0000,40.0000,323.9709)" stroke="none" text-anchor="middle">8</text></g><g stroke-linejoin="miter" stroke-opacity="1.0" fill-opacity="1.0" stroke="rgb(0,0,0)" stroke-width="0.0" fill="rgb(255,165,0)" stroke-linecap="butt" stroke-miterlimit="10.0"><path d="M 25.4722,323.9709 c 0.0000,-2.6745 -2.1681,-4.8426 -4.8426 -4.8426c -2.6745,-0.0000 -4.8426,2.1681 -4.8426 4.8426c -0.0000,2.6745 2.1681,4.8426 4.8426 4.8426c 2.6745,0.0000 4.8426,-2.1681 4.8426 -4.8426Z"/></g><g stroke-linejoin="miter" stroke-opacity="1.0" fill-opacity="1.0" font-size="4.842615012106537px" stroke="rgb(0,0,0)" stroke-width="0.6908604313413965" fill="rgb(128,0,128)" stroke-linecap="butt" stroke-miterlimit="10.0"><text dominant-baseline="middle" transform="matrix(1.0000,0.0000,0.0000,1.0000,20.6295,323.9709)" stroke="none" text-anchor="middle">5</text></g><g stroke-linejoin="miter" stroke-opacity="1.0" fill-opacity="1.0" stroke="rgb(0,0,0)" stroke-width="0.0" fill="rgb(255,165,0)" stroke-linecap="butt" stroke-miterlimit="10.0"><path d="M 35.1574,304.6005 c 0.0000,-2.6745 -2.1681,-4.8426 -4.8426 -4.8426c -2.6745,-0.0000 -4.8426,2.1681 -4.8426 4.8426c -0.0000,2.6745 2.1681,4.8426 4.8426 4.8426c 2.6745,0.0000 4.8426,-2.1681 4.8426 -4.8426Z"/></g><g stroke-linejoin="miter" stroke-opacity="1.0" fill-opacity="1.0" font-size="4.842615012106537px" stroke="rgb(0,0,0)" stroke-width="0.6908604313413965" fill="rgb(128,0,128)" stroke-linecap="butt" stroke-miterlimit="10.0"><text dominant-baseline="middle" transform="matrix(1.0000,0.0000,0.0000,1.0000,30.3148,304.6005)" stroke="none" text-anchor="middle">*</text></g><g stroke-linejoin="miter" stroke-opacity="1.0" fill-opacity="1.0" stroke="rgb(0,0,0)" stroke-width="0.0" fill="rgb(255,165,0)" stroke-linecap="butt" stroke-miterlimit="10.0"><path d="M 44.8426,285.2300 c 0.0000,-2.6745 -2.1681,-4.8426 -4.8426 -4.8426c -2.6745,-0.0000 -4.8426,2.1681 -4.8426 4.8426c -0.0000,2.6745 2.1681,4.8426 4.8426 4.8426c 2.6745,0.0000 4.8426,-2.1681 4.8426 -4.8426Z"/></g><g stroke-linejoin="miter" stroke-opacity="1.0" fill-opacity="1.0" font-size="4.842615012106537px" stroke="rgb(0,0,0)" stroke-width="0.6908604313413965" fill="rgb(128,0,128)" stroke-linecap="butt" stroke-miterlimit="10.0"><text dominant-baseline="middle" transform="matrix(1.0000,0.0000,0.0000,1.0000,40.0000,285.2300)" stroke="none" text-anchor="middle">-</text></g><g stroke-linejoin="miter" stroke-opacity="1.0" fill-opacity="1.0" stroke="rgb(0,0,0)" stroke-width="0.0" fill="rgb(255,165,0)" stroke-linecap="butt" stroke-miterlimit="10.0"><path d="M 54.5278,265.8596 c 0.0000,-2.6745 -2.1681,-4.8426 -4.8426 -4.8426c -2.6745,-0.0000 -4.8426,2.1681 -4.8426 4.8426c -0.0000,2.6745 2.1681,4.8426 4.8426 4.8426c 2.6745,0.0000 4.8426,-2.1681 4.8426 -4.8426Z"/></g><g stroke-linejoin="miter" stroke-opacity="1.0" fill-opacity="1.0" font-size="4.842615012106537px" stroke="rgb(0,0,0)" stroke-width="0.6908604313413965" fill="rgb(128,0,128)" stroke-linecap="butt" stroke-miterlimit="10.0"><text dominant-baseline="middle" transform="matrix(1.0000,0.0000,0.0000,1.0000,49.6852,265.8596)" stroke="none" text-anchor="middle">÷</text></g><g stroke-linejoin="miter" stroke-opacity="1.0" fill-opacity="1.0" font-size="4.842615012106537px" stroke="rgb(0,0,0)" stroke-width="0.6908604313413965" fill="rgb(128,0,128)" stroke-linecap="butt" stroke-miterlimit="10.0"><text dominant-baseline="middle" transform="matrix(1.0000,0.0000,0.0000,1.0000,40.0000,252.7845)" stroke="none" text-anchor="middle">value : 5</text></g><g stroke-linejoin="miter" stroke-opacity="1.0" fill-opacity="0.0" stroke="rgb(0,0,0)" stroke-width="0.6908604313413965" fill="rgb(0,0,0)" stroke-linecap="butt" stroke-miterlimit="10.0"><path d="M 44.8426,181.5981 l 9.6852,19.3705 "/></g><g stroke-linejoin="miter" stroke-opacity="1.0" fill-opacity="0.0" stroke="rgb(0,0,0)" stroke-width="0.6908604313413965" fill="rgb(0,0,0)" stroke-linecap="butt" stroke-miterlimit="10.0"><path d="M 44.8426,181.5981 l -9.6852,19.3705 "/></g><g stroke-linejoin="miter" stroke-opacity="1.0" fill-opacity="1.0" stroke="rgb(0,0,0)" stroke-width="0.0" fill="rgb(255,165,0)" stroke-linecap="butt" stroke-miterlimit="10.0"><path d="M 59.3705,200.9685 c 0.0000,-2.6745 -2.1681,-4.8426 -4.8426 -4.8426c -2.6745,-0.0000 -4.8426,2.1681 -4.8426 4.8426c -0.0000,2.6745 2.1681,4.8426 4.8426 4.8426c 2.6745,0.0000 4.8426,-2.1681 4.8426 -4.8426Z"/></g><g stroke-linejoin="miter" stroke-opacity="1.0" fill-opacity="1.0" font-size="4.842615012106537px" stroke="rgb(0,0,0)" stroke-width="0.6908604313413965" fill="rgb(128,0,128)" stroke-linecap="butt" stroke-miterlimit="10.0"><text dominant-baseline="middle" transform="matrix(1.0000,0.0000,0.0000,1.0000,54.5278,200.9685)" stroke="none" text-anchor="middle">2</text></g><g stroke-linejoin="miter" stroke-opacity="1.0" fill-opacity="0.0" stroke="rgb(0,0,0)" stroke-width="0.6908604313413965" fill="rgb(0,0,0)" stroke-linecap="butt" stroke-miterlimit="10.0"><path d="M 35.1574,200.9685 l 9.6852,19.3705 "/></g><g stroke-linejoin="miter" stroke-opacity="1.0" fill-opacity="0.0" stroke="rgb(0,0,0)" stroke-width="0.6908604313413965" fill="rgb(0,0,0)" stroke-linecap="butt" stroke-miterlimit="10.0"><path d="M 35.1574,200.9685 l -9.6852,19.3705 "/></g><g stroke-linejoin="miter" stroke-opacity="1.0" fill-opacity="0.0" stroke="rgb(0,0,0)" stroke-width="0.6908604313413965" fill="rgb(0,0,0)" stroke-linecap="butt" stroke-miterlimit="10.0"><path d="M 44.8426,220.3390 l 9.6852,19.3705 "/></g><g stroke-linejoin="miter" stroke-opacity="1.0" fill-opacity="0.0" stroke="rgb(0,0,0)" stroke-width="0.6908604313413965" fill="rgb(0,0,0)" stroke-linecap="butt" stroke-miterlimit="10.0"><path d="M 44.8426,220.3390 l -9.6852,19.3705 "/></g><g stroke-linejoin="miter" stroke-opacity="1.0" fill-opacity="1.0" stroke="rgb(0,0,0)" stroke-width="0.0" fill="rgb(255,165,0)" stroke-linecap="butt" stroke-miterlimit="10.0"><path d="M 59.3705,239.7094 c 0.0000,-2.6745 -2.1681,-4.8426 -4.8426 -4.8426c -2.6745,-0.0000 -4.8426,2.1681 -4.8426 4.8426c -0.0000,2.6745 2.1681,4.8426 4.8426 4.8426c 2.6745,0.0000 4.8426,-2.1681 4.8426 -4.8426Z"/></g><g stroke-linejoin="miter" stroke-opacity="1.0" fill-opacity="1.0" font-size="4.842615012106537px" stroke="rgb(0,0,0)" stroke-width="0.6908604313413965" fill="rgb(128,0,128)" stroke-linecap="butt" stroke-miterlimit="10.0"><text dominant-baseline="middle" transform="matrix(1.0000,0.0000,0.0000,1.0000,54.5278,239.7094)" stroke="none" text-anchor="middle">6</text></g><g stroke-linejoin="miter" stroke-opacity="1.0" fill-opacity="1.0" stroke="rgb(0,0,0)" stroke-width="0.0" fill="rgb(255,165,0)" stroke-linecap="butt" stroke-miterlimit="10.0"><path d="M 40.0000,239.7094 c 0.0000,-2.6745 -2.1681,-4.8426 -4.8426 -4.8426c -2.6745,-0.0000 -4.8426,2.1681 -4.8426 4.8426c -0.0000,2.6745 2.1681,4.8426 4.8426 4.8426c 2.6745,0.0000 4.8426,-2.1681 4.8426 -4.8426Z"/></g><g stroke-linejoin="miter" stroke-opacity="1.0" fill-opacity="1.0" font-size="4.842615012106537px" stroke="rgb(0,0,0)" stroke-width="0.6908604313413965" fill="rgb(128,0,128)" stroke-linecap="butt" stroke-miterlimit="10.0"><text dominant-baseline="middle" transform="matrix(1.0000,0.0000,0.0000,1.0000,35.1574,239.7094)" stroke="none" text-anchor="middle">8</text></g><g stroke-linejoin="miter" stroke-opacity="1.0" fill-opacity="1.0" stroke="rgb(0,0,0)" stroke-width="0.0" fill="rgb(255,165,0)" stroke-linecap="butt" stroke-miterlimit="10.0"><path d="M 49.6852,220.3390 c 0.0000,-2.6745 -2.1681,-4.8426 -4.8426 -4.8426c -2.6745,-0.0000 -4.8426,2.1681 -4.8426 4.8426c -0.0000,2.6745 2.1681,4.8426 4.8426 4.8426c 2.6745,0.0000 4.8426,-2.1681 4.8426 -4.8426Z"/></g><g stroke-linejoin="miter" stroke-opacity="1.0" fill-opacity="1.0" font-size="4.842615012106537px" stroke="rgb(0,0,0)" stroke-width="0.6908604313413965" fill="rgb(128,0,128)" stroke-linecap="butt" stroke-miterlimit="10.0"><text dominant-baseline="middle" transform="matrix(1.0000,0.0000,0.0000,1.0000,44.8426,220.3390)" stroke="none" text-anchor="middle">-</text></g><g stroke-linejoin="miter" stroke-opacity="1.0" fill-opacity="1.0" stroke="rgb(0,0,0)" stroke-width="0.0" fill="rgb(255,165,0)" stroke-linecap="butt" stroke-miterlimit="10.0"><path d="M 30.3148,220.3390 c 0.0000,-2.6745 -2.1681,-4.8426 -4.8426 -4.8426c -2.6745,-0.0000 -4.8426,2.1681 -4.8426 4.8426c -0.0000,2.6745 2.1681,4.8426 4.8426 4.8426c 2.6745,0.0000 4.8426,-2.1681 4.8426 -4.8426Z"/></g><g stroke-linejoin="miter" stroke-opacity="1.0" fill-opacity="1.0" font-size="4.842615012106537px" stroke="rgb(0,0,0)" stroke-width="0.6908604313413965" fill="rgb(128,0,128)" stroke-linecap="butt" stroke-miterlimit="10.0"><text dominant-baseline="middle" transform="matrix(1.0000,0.0000,0.0000,1.0000,25.4722,220.3390)" stroke="none" text-anchor="middle">5</text></g><g stroke-linejoin="miter" stroke-opacity="1.0" fill-opacity="1.0" stroke="rgb(0,0,0)" stroke-width="0.0" fill="rgb(255,165,0)" stroke-linecap="butt" stroke-miterlimit="10.0"><path d="M 40.0000,200.9685 c 0.0000,-2.6745 -2.1681,-4.8426 -4.8426 -4.8426c -2.6745,-0.0000 -4.8426,2.1681 -4.8426 4.8426c -0.0000,2.6745 2.1681,4.8426 4.8426 4.8426c 2.6745,0.0000 4.8426,-2.1681 4.8426 -4.8426Z"/></g><g stroke-linejoin="miter" stroke-opacity="1.0" fill-opacity="1.0" font-size="4.842615012106537px" stroke="rgb(0,0,0)" stroke-width="0.6908604313413965" fill="rgb(128,0,128)" stroke-linecap="butt" stroke-miterlimit="10.0"><text dominant-baseline="middle" transform="matrix(1.0000,0.0000,0.0000,1.0000,35.1574,200.9685)" stroke="none" text-anchor="middle">*</text></g><g stroke-linejoin="miter" stroke-opacity="1.0" fill-opacity="1.0" stroke="rgb(0,0,0)" stroke-width="0.0" fill="rgb(255,165,0)" stroke-linecap="butt" stroke-miterlimit="10.0"><path d="M 49.6852,181.5981 c 0.0000,-2.6745 -2.1681,-4.8426 -4.8426 -4.8426c -2.6745,-0.0000 -4.8426,2.1681 -4.8426 4.8426c -0.0000,2.6745 2.1681,4.8426 4.8426 4.8426c 2.6745,0.0000 4.8426,-2.1681 4.8426 -4.8426Z"/></g><g stroke-linejoin="miter" stroke-opacity="1.0" fill-opacity="1.0" font-size="4.842615012106537px" stroke="rgb(0,0,0)" stroke-width="0.6908604313413965" fill="rgb(128,0,128)" stroke-linecap="butt" stroke-miterlimit="10.0"><text dominant-baseline="middle" transform="matrix(1.0000,0.0000,0.0000,1.0000,44.8426,181.5981)" stroke="none" text-anchor="middle">÷</text></g><g stroke-linejoin="miter" stroke-opacity="1.0" fill-opacity="1.0" font-size="4.842615012106537px" stroke="rgb(0,0,0)" stroke-width="0.6908604313413965" fill="rgb(128,0,128)" stroke-linecap="butt" stroke-miterlimit="10.0"><text dominant-baseline="middle" transform="matrix(1.0000,0.0000,0.0000,1.0000,40.0000,168.5230)" stroke="none" text-anchor="middle">value : 25</text></g><g stroke-linejoin="miter" stroke-opacity="1.0" fill-opacity="0.0" stroke="rgb(0,0,0)" stroke-width="0.6908604313413965" fill="rgb(0,0,0)" stroke-linecap="butt" stroke-miterlimit="10.0"><path d="M 30.3148,97.3366 l 9.6852,19.3705 "/></g><g stroke-linejoin="miter" stroke-opacity="1.0" fill-opacity="0.0" stroke="rgb(0,0,0)" stroke-width="0.6908604313413965" fill="rgb(0,0,0)" stroke-linecap="butt" stroke-miterlimit="10.0"><path d="M 30.3148,97.3366 l -9.6852,19.3705 "/></g><g stroke-linejoin="miter" stroke-opacity="1.0" fill-opacity="0.0" stroke="rgb(0,0,0)" stroke-width="0.6908604313413965" fill="rgb(0,0,0)" stroke-linecap="butt" stroke-miterlimit="10.0"><path d="M 40.0000,116.7070 l 9.6852,19.3705 "/></g><g stroke-linejoin="miter" stroke-opacity="1.0" fill-opacity="0.0" stroke="rgb(0,0,0)" stroke-width="0.6908604313413965" fill="rgb(0,0,0)" stroke-linecap="butt" stroke-miterlimit="10.0"><path d="M 40.0000,116.7070 l -9.6852,19.3705 "/></g><g stroke-linejoin="miter" stroke-opacity="1.0" fill-opacity="0.0" stroke="rgb(0,0,0)" stroke-width="0.6908604313413965" fill="rgb(0,0,0)" stroke-linecap="butt" stroke-miterlimit="10.0"><path d="M 49.6852,136.0775 l 9.6852,19.3705 "/></g><g stroke-linejoin="miter" stroke-opacity="1.0" fill-opacity="0.0" stroke="rgb(0,0,0)" stroke-width="0.6908604313413965" fill="rgb(0,0,0)" stroke-linecap="butt" stroke-miterlimit="10.0"><path d="M 49.6852,136.0775 l -9.6852,19.3705 "/></g><g stroke-linejoin="miter" stroke-opacity="1.0" fill-opacity="1.0" stroke="rgb(0,0,0)" stroke-width="0.0" fill="rgb(255,165,0)" stroke-linecap="butt" stroke-miterlimit="10.0"><path d="M 64.2131,155.4479 c 0.0000,-2.6745 -2.1681,-4.8426 -4.8426 -4.8426c -2.6745,-0.0000 -4.8426,2.1681 -4.8426 4.8426c -0.0000,2.6745 2.1681,4.8426 4.8426 4.8426c 2.6745,0.0000 4.8426,-2.1681 4.8426 -4.8426Z"/></g><g stroke-linejoin="miter" stroke-opacity="1.0" fill-opacity="1.0" font-size="4.842615012106537px" stroke="rgb(0,0,0)" stroke-width="0.6908604313413965" fill="rgb(128,0,128)" stroke-linecap="butt" stroke-miterlimit="10.0"><text dominant-baseline="middle" transform="matrix(1.0000,0.0000,0.0000,1.0000,59.3705,155.4479)" stroke="none" text-anchor="middle">2</text></g><g stroke-linejoin="miter" stroke-opacity="1.0" fill-opacity="1.0" stroke="rgb(0,0,0)" stroke-width="0.0" fill="rgb(255,165,0)" stroke-linecap="butt" stroke-miterlimit="10.0"><path d="M 44.8426,155.4479 c 0.0000,-2.6745 -2.1681,-4.8426 -4.8426 -4.8426c -2.6745,-0.0000 -4.8426,2.1681 -4.8426 4.8426c -0.0000,2.6745 2.1681,4.8426 4.8426 4.8426c 2.6745,0.0000 4.8426,-2.1681 4.8426 -4.8426Z"/></g><g stroke-linejoin="miter" stroke-opacity="1.0" fill-opacity="1.0" font-size="4.842615012106537px" stroke="rgb(0,0,0)" stroke-width="0.6908604313413965" fill="rgb(128,0,128)" stroke-linecap="butt" stroke-miterlimit="10.0"><text dominant-baseline="middle" transform="matrix(1.0000,0.0000,0.0000,1.0000,40.0000,155.4479)" stroke="none" text-anchor="middle">6</text></g><g stroke-linejoin="miter" stroke-opacity="1.0" fill-opacity="1.0" stroke="rgb(0,0,0)" stroke-width="0.0" fill="rgb(255,165,0)" stroke-linecap="butt" stroke-miterlimit="10.0"><path d="M 54.5278,136.0775 c 0.0000,-2.6745 -2.1681,-4.8426 -4.8426 -4.8426c -2.6745,-0.0000 -4.8426,2.1681 -4.8426 4.8426c -0.0000,2.6745 2.1681,4.8426 4.8426 4.8426c 2.6745,0.0000 4.8426,-2.1681 4.8426 -4.8426Z"/></g><g stroke-linejoin="miter" stroke-opacity="1.0" fill-opacity="1.0" font-size="4.842615012106537px" stroke="rgb(0,0,0)" stroke-width="0.6908604313413965" fill="rgb(128,0,128)" stroke-linecap="butt" stroke-miterlimit="10.0"><text dominant-baseline="middle" transform="matrix(1.0000,0.0000,0.0000,1.0000,49.6852,136.0775)" stroke="none" text-anchor="middle">÷</text></g><g stroke-linejoin="miter" stroke-opacity="1.0" fill-opacity="1.0" stroke="rgb(0,0,0)" stroke-width="0.0" fill="rgb(255,165,0)" stroke-linecap="butt" stroke-miterlimit="10.0"><path d="M 35.1574,136.0775 c 0.0000,-2.6745 -2.1681,-4.8426 -4.8426 -4.8426c -2.6745,-0.0000 -4.8426,2.1681 -4.8426 4.8426c -0.0000,2.6745 2.1681,4.8426 4.8426 4.8426c 2.6745,0.0000 4.8426,-2.1681 4.8426 -4.8426Z"/></g><g stroke-linejoin="miter" stroke-opacity="1.0" fill-opacity="1.0" font-size="4.842615012106537px" stroke="rgb(0,0,0)" stroke-width="0.6908604313413965" fill="rgb(128,0,128)" stroke-linecap="butt" stroke-miterlimit="10.0"><text dominant-baseline="middle" transform="matrix(1.0000,0.0000,0.0000,1.0000,30.3148,136.0775)" stroke="none" text-anchor="middle">8</text></g><g stroke-linejoin="miter" stroke-opacity="1.0" fill-opacity="1.0" stroke="rgb(0,0,0)" stroke-width="0.0" fill="rgb(255,165,0)" stroke-linecap="butt" stroke-miterlimit="10.0"><path d="M 44.8426,116.7070 c 0.0000,-2.6745 -2.1681,-4.8426 -4.8426 -4.8426c -2.6745,-0.0000 -4.8426,2.1681 -4.8426 4.8426c -0.0000,2.6745 2.1681,4.8426 4.8426 4.8426c 2.6745,0.0000 4.8426,-2.1681 4.8426 -4.8426Z"/></g><g stroke-linejoin="miter" stroke-opacity="1.0" fill-opacity="1.0" font-size="4.842615012106537px" stroke="rgb(0,0,0)" stroke-width="0.6908604313413965" fill="rgb(128,0,128)" stroke-linecap="butt" stroke-miterlimit="10.0"><text dominant-baseline="middle" transform="matrix(1.0000,0.0000,0.0000,1.0000,40.0000,116.7070)" stroke="none" text-anchor="middle">-</text></g><g stroke-linejoin="miter" stroke-opacity="1.0" fill-opacity="1.0" stroke="rgb(0,0,0)" stroke-width="0.0" fill="rgb(255,165,0)" stroke-linecap="butt" stroke-miterlimit="10.0"><path d="M 25.4722,116.7070 c 0.0000,-2.6745 -2.1681,-4.8426 -4.8426 -4.8426c -2.6745,-0.0000 -4.8426,2.1681 -4.8426 4.8426c -0.0000,2.6745 2.1681,4.8426 4.8426 4.8426c 2.6745,0.0000 4.8426,-2.1681 4.8426 -4.8426Z"/></g><g stroke-linejoin="miter" stroke-opacity="1.0" fill-opacity="1.0" font-size="4.842615012106537px" stroke="rgb(0,0,0)" stroke-width="0.6908604313413965" fill="rgb(128,0,128)" stroke-linecap="butt" stroke-miterlimit="10.0"><text dominant-baseline="middle" transform="matrix(1.0000,0.0000,0.0000,1.0000,20.6295,116.7070)" stroke="none" text-anchor="middle">5</text></g><g stroke-linejoin="miter" stroke-opacity="1.0" fill-opacity="1.0" stroke="rgb(0,0,0)" stroke-width="0.0" fill="rgb(255,165,0)" stroke-linecap="butt" stroke-miterlimit="10.0"><path d="M 35.1574,97.3366 c 0.0000,-2.6745 -2.1681,-4.8426 -4.8426 -4.8426c -2.6745,-0.0000 -4.8426,2.1681 -4.8426 4.8426c -0.0000,2.6745 2.1681,4.8426 4.8426 4.8426c 2.6745,0.0000 4.8426,-2.1681 4.8426 -4.8426Z"/></g><g stroke-linejoin="miter" stroke-opacity="1.0" fill-opacity="1.0" font-size="4.842615012106537px" stroke="rgb(0,0,0)" stroke-width="0.6908604313413965" fill="rgb(128,0,128)" stroke-linecap="butt" stroke-miterlimit="10.0"><text dominant-baseline="middle" transform="matrix(1.0000,0.0000,0.0000,1.0000,30.3148,97.3366)" stroke="none" text-anchor="middle">*</text></g><g stroke-linejoin="miter" stroke-opacity="1.0" fill-opacity="1.0" font-size="4.842615012106537px" stroke="rgb(0,0,0)" stroke-width="0.6908604313413965" fill="rgb(128,0,128)" stroke-linecap="butt" stroke-miterlimit="10.0"><text dominant-baseline="middle" transform="matrix(1.0000,0.0000,0.0000,1.0000,40.0000,84.2615)" stroke="none" text-anchor="middle">value : 5</text></g><g stroke-linejoin="miter" stroke-opacity="1.0" fill-opacity="0.0" stroke="rgb(0,0,0)" stroke-width="0.6908604313413965" fill="rgb(0,0,0)" stroke-linecap="butt" stroke-miterlimit="10.0"><path d="M 35.1574,13.0751 l 9.6852,19.3705 "/></g><g stroke-linejoin="miter" stroke-opacity="1.0" fill-opacity="0.0" stroke="rgb(0,0,0)" stroke-width="0.6908604313413965" fill="rgb(0,0,0)" stroke-linecap="butt" stroke-miterlimit="10.0"><path d="M 35.1574,13.0751 l -9.6852,19.3705 "/></g><g stroke-linejoin="miter" stroke-opacity="1.0" fill-opacity="0.0" stroke="rgb(0,0,0)" stroke-width="0.6908604313413965" fill="rgb(0,0,0)" stroke-linecap="butt" stroke-miterlimit="10.0"><path d="M 44.8426,32.4455 l 9.6852,19.3705 "/></g><g stroke-linejoin="miter" stroke-opacity="1.0" fill-opacity="0.0" stroke="rgb(0,0,0)" stroke-width="0.6908604313413965" fill="rgb(0,0,0)" stroke-linecap="butt" stroke-miterlimit="10.0"><path d="M 44.8426,32.4455 l -9.6852,19.3705 "/></g><g stroke-linejoin="miter" stroke-opacity="1.0" fill-opacity="1.0" stroke="rgb(0,0,0)" stroke-width="0.0" fill="rgb(255,165,0)" stroke-linecap="butt" stroke-miterlimit="10.0"><path d="M 59.3705,51.8160 c 0.0000,-2.6745 -2.1681,-4.8426 -4.8426 -4.8426c -2.6745,-0.0000 -4.8426,2.1681 -4.8426 4.8426c -0.0000,2.6745 2.1681,4.8426 4.8426 4.8426c 2.6745,0.0000 4.8426,-2.1681 4.8426 -4.8426Z"/></g><g stroke-linejoin="miter" stroke-opacity="1.0" fill-opacity="1.0" font-size="4.842615012106537px" stroke="rgb(0,0,0)" stroke-width="0.6908604313413965" fill="rgb(128,0,128)" stroke-linecap="butt" stroke-miterlimit="10.0"><text dominant-baseline="middle" transform="matrix(1.0000,0.0000,0.0000,1.0000,54.5278,51.8160)" stroke="none" text-anchor="middle">2</text></g><g stroke-linejoin="miter" stroke-opacity="1.0" fill-opacity="0.0" stroke="rgb(0,0,0)" stroke-width="0.6908604313413965" fill="rgb(0,0,0)" stroke-linecap="butt" stroke-miterlimit="10.0"><path d="M 35.1574,51.8160 l 9.6852,19.3705 "/></g><g stroke-linejoin="miter" stroke-opacity="1.0" fill-opacity="0.0" stroke="rgb(0,0,0)" stroke-width="0.6908604313413965" fill="rgb(0,0,0)" stroke-linecap="butt" stroke-miterlimit="10.0"><path d="M 35.1574,51.8160 l -9.6852,19.3705 "/></g><g stroke-linejoin="miter" stroke-opacity="1.0" fill-opacity="1.0" stroke="rgb(0,0,0)" stroke-width="0.0" fill="rgb(255,165,0)" stroke-linecap="butt" stroke-miterlimit="10.0"><path d="M 49.6852,71.1864 c 0.0000,-2.6745 -2.1681,-4.8426 -4.8426 -4.8426c -2.6745,-0.0000 -4.8426,2.1681 -4.8426 4.8426c -0.0000,2.6745 2.1681,4.8426 4.8426 4.8426c 2.6745,0.0000 4.8426,-2.1681 4.8426 -4.8426Z"/></g><g stroke-linejoin="miter" stroke-opacity="1.0" fill-opacity="1.0" font-size="4.842615012106537px" stroke="rgb(0,0,0)" stroke-width="0.6908604313413965" fill="rgb(128,0,128)" stroke-linecap="butt" stroke-miterlimit="10.0"><text dominant-baseline="middle" transform="matrix(1.0000,0.0000,0.0000,1.0000,44.8426,71.1864)" stroke="none" text-anchor="middle">6</text></g><g stroke-linejoin="miter" stroke-opacity="1.0" fill-opacity="1.0" stroke="rgb(0,0,0)" stroke-width="0.0" fill="rgb(255,165,0)" stroke-linecap="butt" stroke-miterlimit="10.0"><path d="M 30.3148,71.1864 c 0.0000,-2.6745 -2.1681,-4.8426 -4.8426 -4.8426c -2.6745,-0.0000 -4.8426,2.1681 -4.8426 4.8426c -0.0000,2.6745 2.1681,4.8426 4.8426 4.8426c 2.6745,0.0000 4.8426,-2.1681 4.8426 -4.8426Z"/></g><g stroke-linejoin="miter" stroke-opacity="1.0" fill-opacity="1.0" font-size="4.842615012106537px" stroke="rgb(0,0,0)" stroke-width="0.6908604313413965" fill="rgb(128,0,128)" stroke-linecap="butt" stroke-miterlimit="10.0"><text dominant-baseline="middle" transform="matrix(1.0000,0.0000,0.0000,1.0000,25.4722,71.1864)" stroke="none" text-anchor="middle">8</text></g><g stroke-linejoin="miter" stroke-opacity="1.0" fill-opacity="1.0" stroke="rgb(0,0,0)" stroke-width="0.0" fill="rgb(255,165,0)" stroke-linecap="butt" stroke-miterlimit="10.0"><path d="M 40.0000,51.8160 c 0.0000,-2.6745 -2.1681,-4.8426 -4.8426 -4.8426c -2.6745,-0.0000 -4.8426,2.1681 -4.8426 4.8426c -0.0000,2.6745 2.1681,4.8426 4.8426 4.8426c 2.6745,0.0000 4.8426,-2.1681 4.8426 -4.8426Z"/></g><g stroke-linejoin="miter" stroke-opacity="1.0" fill-opacity="1.0" font-size="4.842615012106537px" stroke="rgb(0,0,0)" stroke-width="0.6908604313413965" fill="rgb(128,0,128)" stroke-linecap="butt" stroke-miterlimit="10.0"><text dominant-baseline="middle" transform="matrix(1.0000,0.0000,0.0000,1.0000,35.1574,51.8160)" stroke="none" text-anchor="middle">-</text></g><g stroke-linejoin="miter" stroke-opacity="1.0" fill-opacity="1.0" stroke="rgb(0,0,0)" stroke-width="0.0" fill="rgb(255,165,0)" stroke-linecap="butt" stroke-miterlimit="10.0"><path d="M 49.6852,32.4455 c 0.0000,-2.6745 -2.1681,-4.8426 -4.8426 -4.8426c -2.6745,-0.0000 -4.8426,2.1681 -4.8426 4.8426c -0.0000,2.6745 2.1681,4.8426 4.8426 4.8426c 2.6745,0.0000 4.8426,-2.1681 4.8426 -4.8426Z"/></g><g stroke-linejoin="miter" stroke-opacity="1.0" fill-opacity="1.0" font-size="4.842615012106537px" stroke="rgb(0,0,0)" stroke-width="0.6908604313413965" fill="rgb(128,0,128)" stroke-linecap="butt" stroke-miterlimit="10.0"><text dominant-baseline="middle" transform="matrix(1.0000,0.0000,0.0000,1.0000,44.8426,32.4455)" stroke="none" text-anchor="middle">÷</text></g><g stroke-linejoin="miter" stroke-opacity="1.0" fill-opacity="1.0" stroke="rgb(0,0,0)" stroke-width="0.0" fill="rgb(255,165,0)" stroke-linecap="butt" stroke-miterlimit="10.0"><path d="M 30.3148,32.4455 c 0.0000,-2.6745 -2.1681,-4.8426 -4.8426 -4.8426c -2.6745,-0.0000 -4.8426,2.1681 -4.8426 4.8426c -0.0000,2.6745 2.1681,4.8426 4.8426 4.8426c 2.6745,0.0000 4.8426,-2.1681 4.8426 -4.8426Z"/></g><g stroke-linejoin="miter" stroke-opacity="1.0" fill-opacity="1.0" font-size="4.842615012106537px" stroke="rgb(0,0,0)" stroke-width="0.6908604313413965" fill="rgb(128,0,128)" stroke-linecap="butt" stroke-miterlimit="10.0"><text dominant-baseline="middle" transform="matrix(1.0000,0.0000,0.0000,1.0000,25.4722,32.4455)" stroke="none" text-anchor="middle">5</text></g><g stroke-linejoin="miter" stroke-opacity="1.0" fill-opacity="1.0" stroke="rgb(0,0,0)" stroke-width="0.0" fill="rgb(255,165,0)" stroke-linecap="butt" stroke-miterlimit="10.0"><path d="M 40.0000,13.0751 c 0.0000,-2.6745 -2.1681,-4.8426 -4.8426 -4.8426c -2.6745,-0.0000 -4.8426,2.1681 -4.8426 4.8426c -0.0000,2.6745 2.1681,4.8426 4.8426 4.8426c 2.6745,0.0000 4.8426,-2.1681 4.8426 -4.8426Z"/></g><g stroke-linejoin="miter" stroke-opacity="1.0" fill-opacity="1.0" font-size="4.842615012106537px" stroke="rgb(0,0,0)" stroke-width="0.6908604313413965" fill="rgb(128,0,128)" stroke-linecap="butt" stroke-miterlimit="10.0"><text dominant-baseline="middle" transform="matrix(1.0000,0.0000,0.0000,1.0000,35.1574,13.0751)" stroke="none" text-anchor="middle">*</text></g></svg>