<?xml version="1.0" encoding="UTF-8"?>
<!DOCTYPE svg PUBLIC "-//W3C//DTD SVG 1.1//EN"
    "http://www.w3.org/Graphics/SVG/1.1/DTD/svg11.dtd"><svg xmlns="http://www.w3.org/2000/svg" height="350.0000" stroke-opacity="1" viewBox="0.0 0.0 150.0 350.0" font-size="1" width="150.0000" xmlns:xlink="http://www.w3.org/1999/xlink" stroke="rgb(0,0,0)" version="1.1"><defs></defs><g stroke-linejoin="miter" stroke-opacity="1.0" fill-opacity="1.0" font-size="13.636363636363637px" stroke="rgb(0,0,0)" stroke-width="0.7546221209682006" fill="rgb(128,0,128)" stroke-linecap="butt" stroke-miterlimit="10.0"><text dominant-baseline="middle" transform="matrix(1.0000,0.0000,0.0000,1.0000,75.0000,293.6364)" stroke="none" text-anchor="middle">value : 17</text></g><g stroke-linejoin="miter" stroke-opacity="1.0" fill-opacity="0.0" stroke="rgb(0,0,0)" stroke-width="0.7546221209682006" fill="rgb(0,0,0)" stroke-linecap="butt" stroke-miterlimit="10.0"><path d="M 102.2727,93.1818 l 27.2727,54.5455 "/></g><g stroke-linejoin="miter" stroke-opacity="1.0" fill-opacity="0.0" stroke="rgb(0,0,0)" stroke-width="0.7546221209682006" fill="rgb(0,0,0)" stroke-linecap="butt" stroke-miterlimit="10.0"><path d="M 102.2727,93.1818 l -27.2727,54.5455 "/></g><g stroke-linejoin="miter" stroke-opacity="1.0" fill-opacity="1.0" stroke="rgb(0,0,0)" stroke-width="0.0" fill="rgb(255,165,0)" stroke-linecap="butt" stroke-miterlimit="10.0"><path d="M 143.1818,147.7273 c 0.0000,-7.5312 -6.1052,-13.6364 -13.6364 -13.6364c -7.5312,-0.0000 -13.6364,6.1052 -13.6364 13.6364c -0.0000,7.5312 6.1052,13.6364 13.6364 13.6364c 7.5312,0.0000 13.6364,-6.1052 13.6364 -13.6364Z"/></g><g stroke-linejoin="miter" stroke-opacity="1.0" fill-opacity="1.0" font-size="13.636363636363637px" stroke="rgb(0,0,0)" stroke-width="0.7546221209682006" fill="rgb(128,0,128)" stroke-linecap="butt" stroke-miterlimit="10.0"><text dominant-baseline="middle" transform="matrix(1.0000,0.0000,0.0000,1.0000,129.5455,147.7273)" stroke="none" text-anchor="middle">2</text></g><g stroke-linejoin="miter" stroke-opacity="1.0" fill-opacity="0.0" stroke="rgb(0,0,0)" stroke-width="0.7546221209682006" fill="rgb(0,0,0)" stroke-linecap="butt" stroke-miterlimit="10.0"><path d="M 75.0000,147.7273 l 27.2727,54.5455 "/></g><g stroke-linejoin="miter" stroke-opacity="1.0" fill-opacity="0.0" stroke="rgb(0,0,0)" stroke-width="0.7546221209682006" fill="rgb(0,0,0)" stroke-linecap="butt" stroke-miterlimit="10.0"><path d="M 75.0000,147.7273 l -27.2727,54.5455 "/></g><g stroke-linejoin="miter" stroke-opacity="1.0" fill-opacity="1.0" stroke="rgb(0,0,0)" stroke-width="0.0" fill="rgb(255,165,0)" stroke-linecap="butt" stroke-miterlimit="10.0"><path d="M 115.9091,202.2727 c 0.0000,-7.5312 -6.1052,-13.6364 -13.6364 -13.6364c -7.5312,-0.0000 -13.6364,6.1052 -13.6364 13.6364c -0.0000,7.5312 6.1052,13.6364 13.6364 13.6364c 7.5312,0.0000 13.6364,-6.1052 13.6364 -13.6364Z"/></g><g stroke-linejoin="miter" stroke-opacity="1.0" fill-opacity="1.0" font-size="13.636363636363637px" stroke="rgb(0,0,0)" stroke-width="0.7546221209682006" fill="rgb(128,0,128)" stroke-linecap="butt" stroke-miterlimit="10.0"><text dominant-baseline="middle" transform="matrix(1.0000,0.0000,0.0000,1.0000,102.2727,202.2727)" stroke="none" text-anchor="middle">6</text></g><g stroke-linejoin="miter" stroke-opacity="1.0" fill-opacity="0.0" stroke="rgb(0,0,0)" stroke-width="0.7546221209682006" fill="rgb(0,0,0)" stroke-linecap="butt" stroke-miterlimit="10.0"><path d="M 47.7273,202.2727 l 27.2727,54.5455 "/></g><g stroke-linejoin="miter" stroke-opacity="1.0" fill-opacity="0.0" stroke="rgb(0,0,0)" stroke-width="0.7546221209682006" fill="rgb(0,0,0)" stroke-linecap="butt" stroke-miterlimit="10.0"><path d="M 47.7273,202.2727 l -27.2727,54.5455 "/></g><g stroke-linejoin="miter" stroke-opacity="1.0" fill-opacity="1.0" stroke="rgb(0,0,0)" stroke-width="0.0" fill="rgb(255,165,0)" stroke-linecap="butt" stroke-miterlimit="10.0"><path d="M 88.6364,256.8182 c 0.0000,-7.5312 -6.1052,-13.6364 -13.6364 -13.6364c -7.5312,-0.0000 -13.6364,6.1052 -13.6364 13.6364c -0.0000,7.5312 6.1052,13.6364 13.6364 13.6364c 7.5312,0.0000 13.6364,-6.1052 13.6364 -13.6364Z"/></g><g stroke-linejoin="miter" stroke-opacity="1.0" fill-opacity="1.0" font-size="13.636363636363637px" stroke="rgb(0,0,0)" stroke-width="0.7546221209682006" fill="rgb(128,0,128)" stroke-linecap="butt" stroke-miterlimit="10.0"><text dominant-baseline="middle" transform="matrix(1.0000,0.0000,0.0000,1.0000,75.0000,256.8182)" stroke="none" text-anchor="middle">8</text></g><g stroke-linejoin="miter" stroke-opacity="1.0" fill-opacity="1.0" stroke="rgb(0,0,0)" stroke-width="0.0" fill="rgb(255,165,0)" stroke-linecap="butt" stroke-miterlimit="10.0"><path d="M 34.0909,256.8182 c 0.0000,-7.5312 -6.1052,-13.6364 -13.6364 -13.6364c -7.5312,-0.0000 -13.6364,6.1052 -13.6364 13.6364c -0.0000,7.5312 6.1052,13.6364 13.6364 13.6364c 7.5312,0.0000 13.6364,-6.1052 13.6364 -13.6364Z"/></g><g stroke-linejoin="miter" stroke-opacity="1.0" fill-opacity="1.0" font-size="13.636363636363637px" stroke="rgb(0,0,0)" stroke-width="0.7546221209682006" fill="rgb(128,0,128)" stroke-linecap="butt" stroke-miterlimit="10.0"><text dominant-baseline="middle" transform="matrix(1.0000,0.0000,0.0000,1.0000,20.4545,256.8182)" stroke="none" text-anchor="middle">5</text></g><g stroke-linejoin="miter" stroke-opacity="1.0" fill-opacity="1.0" stroke="rgb(0,0,0)" stroke-width="0.0" fill="rgb(255,165,0)" stroke-linecap="butt" stroke-miterlimit="10.0"><path d="M 61.3636,202.2727 c 0.0000,-7.5312 -6.1052,-13.6364 -13.6364 -13.6364c -7.5312,-0.0000 -13.6364,6.1052 -13.6364 13.6364c -0.0000,7.5312 6.1052,13.6364 13.6364 13.6364c 7.5312,0.0000 13.6364,-6.1052 13.6364 -13.6364Z"/></g><g stroke-linejoin="miter" stroke-opacity="1.0" fill-opacity="1.0" font-size="13.636363636363637px" stroke="rgb(0,0,0)" stroke-width="0.7546221209682006" fill="rgb(128,0,128)" stroke-linecap="butt" stroke-miterlimit="10.0"><text dominant-baseline="middle" transform="matrix(1.0000,0.0000,0.0000,1.0000,47.7273,202.2727)" stroke="none" text-anchor="middle">*</text></g><g stroke-linejoin="miter" stroke-opacity="1.0" fill-opacity="1.0" stroke="rgb(0,0,0)" stroke-width="0.0" fill="rgb(255,165,0)" stroke-linecap="butt" stroke-miterlimit="10.0"><path d="M 88.6364,147.7273 c 0.0000,-7.5312 -6.1052,-13.6364 -13.6364 -13.6364c -7.5312,-0.0000 -13.6364,6.1052 -13.6364 13.6364c -0.0000,7.5312 6.1052,13.6364 13.6364 13.6364c 7.5312,0.0000 13.6364,-6.1052 13.6364 -13.6364Z"/></g><g stroke-linejoin="miter" stroke-opacity="1.0" fill-opacity="1.0" font-size="13.636363636363637px" stroke="rgb(0,0,0)" stroke-width="0.7546221209682006" fill="rgb(128,0,128)" stroke-linecap="butt" stroke-miterlimit="10.0"><text dominant-baseline="middle" transform="matrix(1.0000,0.0000,0.0000,1.0000,75.0000,147.7273)" stroke="none" text-anchor="middle">-</text></g><g stroke-linejoin="miter" stroke-opacity="1.0" fill-opacity="1.0" stroke="rgb(0,0,0)" stroke-width="0.0" fill="rgb(255,165,0)" stroke-linecap="butt" stroke-miterlimit="10.0"><path d="M 115.9091,93.1818 c 0.0000,-7.5312 -6.1052,-13.6364 -13.6364 -13.6364c -7.5312,-0.0000 -13.6364,6.1052 -13.6364 13.6364c -0.0000,7.5312 6.1052,13.6364 13.6364 13.6364c 7.5312,0.0000 13.6364,-6.1052 13.6364 -13.6364Z"/></g><g stroke-linejoin="miter" stroke-opacity="1.0" fill-opacity="1.0" font-size="13.636363636363637px" stroke="rgb(0,0,0)" stroke-width="0.7546221209682006" fill="rgb(128,0,128)" stroke-linecap="butt" stroke-miterlimit="10.0"><text dominant-baseline="middle" transform="matrix(1.0000,0.0000,0.0000,1.0000,102.2727,93.1818)" stroke="none" text-anchor="middle">รท</text></g></svg>